if (_typeface_js && _typeface_js.loadFace) _typeface_js.loadFace({"glyphs":{"¦":{"x_min":311,"x_max":385,"ha":694,"o":"m 385 277 l 385 -237 l 311 -237 l 311 277 l 385 277 m 385 971 l 385 457 l 311 457 l 311 971 l 385 971 "},"Ž":{"x_min":45,"x_max":921,"ha":966,"o":"m 45 0 l 45 98 l 782 909 l 81 909 l 81 1003 l 921 1003 l 921 909 l 169 98 l 921 98 l 921 0 l 45 0 m 483 1161 l 625 1310 l 733 1310 l 539 1105 l 426 1105 l 233 1310 l 340 1310 l 483 1161 "},"Á":{"x_min":11,"x_max":1046,"ha":1059,"o":"m 299 407 l 759 407 l 530 919 l 299 407 m 11 0 l 473 1003 l 588 1003 l 1046 0 l 944 0 l 804 310 l 255 310 l 114 0 l 11 0 m 460 1105 l 579 1310 l 706 1310 l 542 1105 l 460 1105 "},"Î":{"x_min":-75,"x_max":425,"ha":350,"o":"m 125 0 l 125 1003 l 225 1003 l 225 0 l 125 0 m 175 1251 l 32 1105 l -75 1105 l 118 1310 l 231 1310 l 425 1105 l 317 1105 l 175 1251 "},"e":{"x_min":57,"x_max":842,"ha":895,"o":"m 164 428 l 732 428 q 646 603 723 537 q 450 670 569 670 q 251 603 329 670 q 164 428 173 537 m 814 234 q 686 44 784 114 q 450 -26 588 -26 q 165 82 273 -26 q 57 368 57 190 q 165 653 57 544 q 450 762 274 762 q 734 654 627 762 q 842 369 842 547 l 842 347 l 161 347 q 244 140 169 213 q 450 68 320 68 q 611 111 544 68 q 705 234 678 155 l 814 234 "},"»":{"x_min":100,"x_max":636,"ha":724,"o":"m 636 299 l 393 115 l 393 225 l 580 368 l 393 511 l 393 621 l 636 436 l 636 299 m 343 299 l 100 115 l 100 225 l 287 368 l 100 511 l 100 621 l 343 436 l 343 299 "},"∆":{"x_min":-7,"x_max":919,"ha":913,"o":"m 771 94 l 455 898 l 140 94 l 771 94 m 519 999 l 919 0 l -7 0 l 393 999 l 519 999 "},"ò":{"x_min":57,"x_max":844,"ha":900,"o":"m 155 368 q 234 149 155 230 q 449 68 314 68 q 664 149 584 68 q 744 368 744 231 q 664 586 744 505 q 449 668 584 668 q 234 586 314 668 q 155 368 155 505 m 57 368 q 165 653 57 544 q 450 762 273 762 q 734 652 625 762 q 844 368 844 543 q 734 83 844 192 q 450 -26 625 -26 q 165 83 273 -26 q 57 368 57 192 m 449 838 l 285 1043 l 411 1043 l 531 838 l 449 838 "},"^":{"x_min":286,"x_max":1101,"ha":1389,"o":"m 741 989 l 1101 611 l 1004 611 l 694 919 l 382 611 l 286 611 l 646 989 l 741 989 "},"«":{"x_min":87,"x_max":623,"ha":724,"o":"m 87 436 l 330 621 l 330 511 l 142 368 l 330 225 l 330 115 l 87 299 l 87 436 m 378 436 l 623 621 l 623 511 l 435 368 l 623 225 l 623 115 l 378 299 l 378 436 "},"∙":{"x_min":153,"x_max":297,"ha":450,"o":"m 153 488 q 173 538 153 518 q 225 559 194 559 q 276 538 255 559 q 297 488 297 518 q 276 437 297 458 q 225 416 255 416 q 173 437 194 416 q 153 488 153 458 "},"í":{"x_min":76,"x_max":322,"ha":313,"o":"m 109 0 l 109 736 l 205 736 l 205 0 l 109 0 m 76 838 l 195 1043 l 322 1043 l 158 838 l 76 838 "},"ˆ":{"x_min":97,"x_max":597,"ha":694,"o":"m 347 984 l 204 838 l 97 838 l 290 1043 l 403 1043 l 597 838 l 489 838 l 347 984 "},"µ":{"x_min":-75,"x_max":703,"ha":753,"o":"m 233 722 l 148 320 q 140 271 143 294 q 137 226 137 248 q 177 104 137 147 q 290 61 216 61 q 436 133 375 61 q 526 344 497 206 l 608 722 l 703 722 l 591 199 q 580 142 583 162 q 576 109 576 122 q 588 76 576 87 q 622 65 599 65 q 634 65 627 65 q 647 66 640 65 l 633 -8 q 605 -13 620 -11 q 575 -15 591 -15 q 505 8 527 -15 q 482 83 482 33 l 482 92 q 401 11 453 40 q 279 -17 348 -17 q 170 10 217 -17 q 97 88 123 37 l 19 -289 l -75 -289 l 139 722 l 233 722 "},"č":{"x_min":57,"x_max":811,"ha":848,"o":"m 713 268 l 811 268 q 694 55 795 137 q 450 -26 594 -26 q 165 83 273 -26 q 57 368 57 192 q 165 653 57 544 q 450 762 273 762 q 687 687 589 762 q 804 492 785 612 l 704 492 q 611 624 677 578 q 446 670 544 670 q 235 586 316 670 q 155 367 155 503 q 235 149 155 230 q 450 68 315 68 q 622 122 550 68 q 713 268 694 177 m 466 894 l 608 1043 l 716 1043 l 522 838 l 409 838 l 216 1043 l 323 1043 l 466 894 "},"’":{"x_min":144,"x_max":257,"ha":401,"o":"m 144 880 l 144 1003 l 257 1003 l 257 840 q 231 723 257 762 q 144 664 205 684 l 144 727 q 183 763 171 741 q 196 820 196 785 l 196 880 l 144 880 "},"-":{"x_min":77,"x_max":567,"ha":643,"o":"m 77 323 l 77 412 l 567 412 l 567 323 l 77 323 "},"Q":{"x_min":69,"x_max":1124,"ha":1193,"o":"m 885 39 q 752 -10 823 5 q 596 -26 681 -26 q 209 114 349 -26 q 69 501 69 255 q 209 888 69 747 q 596 1029 349 1029 q 982 888 841 1029 q 1124 501 1124 747 q 1084 273 1124 373 q 961 96 1044 173 l 1111 -23 l 1047 -94 l 885 39 m 801 110 l 681 207 l 747 281 l 890 158 q 988 308 956 224 q 1021 501 1021 392 q 908 816 1021 702 q 596 931 795 931 q 283 816 396 931 q 171 501 171 702 q 283 185 171 299 q 596 71 396 71 q 717 81 665 71 q 801 110 769 91 "},"M":{"x_min":119,"x_max":1279,"ha":1398,"o":"m 119 0 l 119 1003 l 279 1003 l 702 92 l 1132 1003 l 1279 1003 l 1279 0 l 1181 0 l 1185 916 l 759 0 l 644 0 l 207 916 l 218 0 l 119 0 "},"œ":{"x_min":57,"x_max":1523,"ha":1576,"o":"m 846 428 l 1411 428 q 1328 604 1404 537 q 1132 670 1252 670 q 934 603 1014 670 q 846 428 855 535 m 791 579 q 932 716 846 670 q 1132 762 1017 762 q 1416 654 1309 762 q 1523 369 1523 547 l 1523 347 l 842 347 q 924 142 848 218 q 1122 66 999 66 q 1284 110 1218 66 q 1377 234 1350 153 l 1484 234 q 1360 45 1458 117 q 1132 -26 1263 -26 q 934 19 1019 -26 q 791 156 849 65 q 650 20 737 67 q 450 -26 563 -26 q 165 83 274 -26 q 57 368 57 192 q 165 653 57 544 q 450 762 274 762 q 652 714 564 762 q 791 579 740 667 m 155 368 q 235 149 155 230 q 450 68 315 68 q 664 149 584 68 q 745 368 745 231 q 664 586 745 505 q 450 668 584 668 q 235 586 315 668 q 155 368 155 505 "},"{":{"x_min":118,"x_max":578,"ha":694,"o":"m 578 930 l 552 930 q 433 896 464 930 q 402 757 402 862 l 402 592 q 372 430 402 479 q 268 360 343 381 q 372 290 343 339 q 402 127 402 241 l 402 -36 q 432 -175 402 -142 q 547 -209 462 -209 q 562 -208 552 -209 q 578 -208 572 -208 l 578 -280 l 546 -280 q 365 -230 412 -280 q 319 -29 319 -181 l 319 136 q 280 283 319 240 q 148 326 241 326 q 133 325 143 326 q 118 325 124 325 l 118 397 q 133 396 124 397 q 148 395 143 395 q 280 438 241 395 q 319 586 319 481 l 319 750 q 366 951 319 901 q 546 1002 413 1002 l 578 1002 l 578 930 "},"¼":{"x_min":90,"x_max":1385,"ha":1423,"o":"m 1215 193 l 1215 483 l 951 193 l 1215 193 m 1215 0 l 1215 141 l 890 141 l 890 196 l 1217 559 l 1276 559 l 1276 193 l 1385 193 l 1385 141 l 1276 141 l 1276 0 l 1215 0 m 278 -26 l 1055 1003 l 1146 1003 l 366 -26 l 278 -26 m 277 429 l 277 840 l 90 840 l 90 886 l 152 886 q 255 909 225 886 q 287 990 286 932 l 338 990 l 338 429 l 277 429 "},"#":{"x_min":79,"x_max":988,"ha":1068,"o":"m 660 586 l 480 586 l 414 399 l 595 399 l 660 586 m 621 986 l 508 660 l 687 660 l 803 986 l 889 986 l 774 660 l 988 660 l 962 586 l 748 586 l 681 399 l 912 399 l 887 325 l 656 325 l 541 0 l 453 0 l 570 325 l 388 325 l 271 0 l 185 0 l 300 325 l 79 325 l 105 399 l 325 399 l 394 586 l 154 586 l 178 660 l 418 660 l 535 986 l 621 986 "},"Ê":{"x_min":118,"x_max":889,"ha":954,"o":"m 118 0 l 118 1003 l 889 1003 l 889 909 l 218 909 l 218 558 l 837 558 l 837 464 l 218 464 l 218 94 l 889 94 l 889 0 l 118 0 m 502 1251 l 359 1105 l 252 1105 l 445 1310 l 558 1310 l 752 1105 l 644 1105 l 502 1251 "},")":{"x_min":7,"x_max":339,"ha":425,"o":"m 7 -265 q 179 59 124 -94 q 235 369 235 213 q 180 678 235 524 q 7 1003 125 831 l 79 1003 q 276 675 213 829 q 339 369 339 522 q 276 62 339 216 q 79 -265 213 -92 l 7 -265 "},"Å":{"x_min":11,"x_max":1046,"ha":1059,"o":"m 444 1183 q 467 1125 444 1147 q 530 1104 491 1104 q 593 1125 569 1104 q 618 1183 618 1147 q 594 1240 618 1218 q 530 1262 570 1262 q 467 1240 490 1262 q 444 1183 444 1219 m 375 1183 q 417 1281 375 1245 q 531 1318 459 1318 q 646 1281 604 1318 q 688 1183 688 1245 q 646 1083 688 1119 q 531 1048 604 1048 q 417 1084 459 1048 q 375 1183 375 1120 m 299 407 l 759 407 l 530 919 l 299 407 m 11 0 l 473 1003 l 588 1003 l 1046 0 l 944 0 l 804 310 l 255 310 l 114 0 l 11 0 "},"¸":{"x_min":196,"x_max":542,"ha":694,"o":"m 196 -271 l 212 -227 q 291 -246 255 -240 q 355 -253 326 -253 q 428 -236 404 -253 q 453 -187 453 -219 q 436 -147 453 -161 q 387 -134 419 -134 q 360 -136 375 -134 q 311 -146 345 -138 l 283 -125 l 354 0 l 408 0 l 359 -86 q 388 -80 373 -82 q 417 -78 404 -78 q 509 -107 476 -78 q 542 -189 542 -136 q 499 -275 542 -244 q 380 -307 457 -307 q 296 -298 343 -307 q 196 -271 249 -289 "},"a":{"x_min":81,"x_max":855.0625,"ha":900,"o":"m 854 92 l 855 9 q 812 0 832 2 q 774 -4 792 -4 q 702 22 725 -4 q 675 112 680 48 q 540 13 614 44 q 359 -18 465 -18 q 153 39 226 -18 q 81 203 81 97 q 100 291 81 252 q 158 360 119 330 q 241 397 188 382 q 419 430 293 412 q 495 439 447 433 q 675 543 675 461 q 623 635 675 604 q 471 667 571 667 q 279 624 345 667 q 209 496 214 581 l 113 496 q 207 689 121 625 q 458 754 294 754 q 628 733 564 754 q 730 665 693 712 q 763 599 753 636 q 773 486 773 563 l 773 445 l 773 160 q 781 98 773 111 q 813 86 790 86 q 833 87 823 86 q 854 92 844 89 m 675 399 q 595 371 648 384 q 421 341 542 359 q 220 286 262 315 q 178 200 178 258 q 229 104 178 140 q 368 69 281 69 q 589 132 504 69 q 675 298 675 196 l 675 310 l 675 399 "},"=":{"x_min":172,"x_max":984,"ha":1157,"o":"m 984 321 l 984 255 l 172 255 l 172 321 l 984 321 m 984 573 l 984 507 l 172 507 l 172 573 l 984 573 "},"˚":{"x_min":191,"x_max":503,"ha":694,"o":"m 260 959 q 284 901 260 923 q 347 880 308 880 q 410 901 387 880 q 434 959 434 923 q 410 1016 434 995 q 347 1038 387 1038 q 283 1016 306 1038 q 260 959 260 995 m 191 959 q 233 1057 191 1021 q 347 1094 275 1094 q 461 1058 420 1094 q 503 959 503 1022 q 461 860 503 896 q 347 825 420 825 q 233 860 275 825 q 191 959 191 896 "},"ú":{"x_min":102,"x_max":786,"ha":885,"o":"m 786 736 l 786 0 l 692 0 l 692 135 q 560 22 638 61 q 384 -16 482 -16 q 170 51 239 -16 q 102 259 102 118 l 102 736 l 198 736 l 198 321 q 244 126 198 181 q 401 71 290 71 q 608 139 527 71 q 690 316 690 208 l 690 736 l 786 736 m 380 838 l 499 1043 l 626 1043 l 462 838 l 380 838 "},"¯":{"x_min":86,"x_max":607,"ha":694,"o":"m 86 899 l 86 982 l 607 982 l 607 899 l 86 899 "},"Z":{"x_min":45,"x_max":921,"ha":966,"o":"m 45 0 l 45 98 l 782 909 l 81 909 l 81 1003 l 921 1003 l 921 909 l 169 98 l 921 98 l 921 0 l 45 0 "},"u":{"x_min":102,"x_max":786,"ha":885,"o":"m 786 736 l 786 0 l 692 0 l 692 135 q 560 22 638 61 q 384 -16 482 -16 q 170 51 239 -16 q 102 259 102 118 l 102 736 l 198 736 l 198 321 q 244 126 198 181 q 401 71 290 71 q 608 139 527 71 q 690 316 690 208 l 690 736 l 786 736 "},"k":{"x_min":104,"x_max":823,"ha":819,"o":"m 104 0 l 104 1003 l 201 1003 l 201 393 l 624 736 l 768 736 l 432 465 l 823 0 l 694 0 l 353 404 l 201 279 l 201 0 l 104 0 "},"Ù":{"x_min":119,"x_max":992,"ha":1112,"o":"m 119 1003 l 221 1003 l 221 387 q 301 147 221 223 q 554 71 382 71 q 809 147 728 71 q 891 387 891 224 l 891 1003 l 992 1003 l 992 361 q 879 74 992 174 q 554 -26 766 -26 q 230 73 341 -26 q 119 365 119 173 l 119 1003 m 556 1105 l 392 1310 l 518 1310 l 638 1105 l 556 1105 "},"¢":{"x_min":57,"x_max":811,"ha":900,"o":"m 409 94 l 409 695 q 223 600 291 681 q 155 393 155 519 q 223 186 155 267 q 409 94 292 105 m 713 293 l 811 293 q 706 90 794 168 q 478 0 619 13 l 478 -154 l 409 -154 l 409 0 q 152 120 248 13 q 57 393 57 227 q 152 664 57 557 q 409 785 247 770 l 409 911 l 478 911 l 478 786 q 697 705 610 777 q 804 519 785 632 l 704 519 q 625 641 685 594 q 478 695 565 687 l 478 94 q 632 153 571 101 q 713 293 693 205 "},"Ş":{"x_min":81,"x_max":917,"ha":999,"o":"m 81 331 l 182 331 l 182 325 q 268 141 182 210 q 499 72 355 72 q 726 127 642 72 q 811 278 811 183 q 762 387 811 350 q 561 451 714 424 l 348 489 q 169 571 228 509 q 111 739 111 634 q 214 950 111 871 q 492 1029 317 1029 q 778 947 674 1029 q 887 720 882 865 l 787 720 q 703 881 777 826 q 495 937 628 937 q 288 885 364 937 q 213 744 213 833 q 265 636 213 673 q 463 573 318 598 l 654 540 q 853 454 790 515 q 917 282 917 392 q 809 55 917 137 q 510 -26 702 -26 q 195 65 310 -26 q 81 316 81 157 l 81 331 m 349 -271 l 365 -227 q 444 -246 408 -240 q 508 -253 479 -253 q 581 -236 557 -253 q 606 -187 606 -219 q 589 -147 606 -161 q 540 -134 572 -134 q 513 -136 528 -134 q 464 -146 498 -138 l 436 -125 l 507 0 l 561 0 l 512 -86 q 541 -80 526 -82 q 570 -78 557 -78 q 662 -107 629 -78 q 695 -189 695 -136 q 652 -275 695 -244 q 533 -307 610 -307 q 449 -298 496 -307 q 349 -271 402 -289 "},"é":{"x_min":57,"x_max":842,"ha":895,"o":"m 164 428 l 732 428 q 646 603 723 537 q 450 670 569 670 q 251 603 329 670 q 164 428 173 537 m 814 234 q 686 44 784 114 q 450 -26 588 -26 q 165 82 273 -26 q 57 368 57 190 q 165 653 57 544 q 450 762 274 762 q 734 654 627 762 q 842 369 842 547 l 842 347 l 161 347 q 244 140 169 213 q 450 68 320 68 q 611 111 544 68 q 705 234 678 155 l 814 234 m 381 838 l 500 1043 l 627 1043 l 463 838 l 381 838 "},"B":{"x_min":118,"x_max":958,"ha":1029,"o":"m 118 0 l 118 1003 l 605 1003 q 841 938 761 1003 q 921 749 921 874 q 882 614 921 669 q 763 528 843 559 q 908 449 858 510 q 958 291 958 388 q 871 71 958 142 q 604 0 785 0 l 118 0 m 220 572 l 575 572 q 762 611 707 572 q 818 741 818 650 q 763 871 818 831 q 584 911 709 911 l 220 911 l 220 572 m 220 100 l 594 100 q 792 143 731 100 q 854 282 854 186 q 797 434 854 386 q 616 482 740 482 l 220 482 l 220 100 "},"…":{"x_min":177,"x_max":1216,"ha":1389,"o":"m 177 0 l 177 122 l 290 122 l 290 0 l 177 0 m 639 0 l 639 122 l 752 122 l 752 0 l 639 0 m 1103 0 l 1103 122 l 1216 122 l 1216 0 l 1103 0 "},"H":{"x_min":118,"x_max":971,"ha":1091,"o":"m 118 0 l 118 1003 l 218 1003 l 218 585 l 871 585 l 871 1003 l 971 1003 l 971 0 l 871 0 l 871 489 l 218 489 l 218 0 l 118 0 "},"î":{"x_min":-94,"x_max":406,"ha":313,"o":"m 109 0 l 109 736 l 205 736 l 205 0 l 109 0 m 156 984 l 13 838 l -94 838 l 99 1043 l 212 1043 l 406 838 l 298 838 l 156 984 "},"−":{"x_min":172,"x_max":984,"ha":1157,"o":"m 984 446 l 984 380 l 172 380 l 172 446 l 984 446 "},"≠":{"x_min":172,"x_max":984,"ha":1157,"o":"m 872 753 l 733 574 l 984 574 l 984 509 l 691 509 l 545 321 l 984 321 l 984 255 l 503 255 l 331 35 l 281 75 l 420 255 l 172 255 l 172 321 l 462 321 l 607 509 l 172 509 l 172 574 l 651 574 l 822 793 l 872 753 "},"¥":{"x_min":-20,"x_max":920,"ha":900,"o":"m 400 0 l 400 425 l 30 425 l 30 482 l 356 482 l 267 599 l 30 599 l 30 656 l 224 656 l -20 978 l 104 978 l 450 496 l 799 978 l 920 978 l 673 656 l 869 656 l 869 599 l 630 599 l 539 482 l 869 482 l 869 425 l 497 425 l 497 0 l 400 0 "},"U":{"x_min":119,"x_max":992,"ha":1112,"o":"m 119 1003 l 221 1003 l 221 387 q 301 147 221 223 q 554 71 382 71 q 809 147 728 71 q 891 387 891 224 l 891 1003 l 992 1003 l 992 361 q 879 74 992 174 q 554 -26 766 -26 q 230 73 341 -26 q 119 365 119 173 l 119 1003 "},"Ñ":{"x_min":118,"x_max":1044,"ha":1164,"o":"m 118 0 l 118 1003 l 245 1003 l 947 103 l 947 1003 l 1044 1003 l 1044 0 l 910 0 l 215 899 l 215 0 l 118 0 m 545 1184 q 529 1191 538 1187 q 465 1212 490 1212 q 413 1190 432 1212 q 386 1126 393 1169 l 320 1126 q 367 1244 328 1201 q 468 1288 407 1288 q 508 1282 488 1288 q 555 1262 528 1277 l 618 1231 q 635 1222 624 1228 q 699 1202 675 1202 q 751 1224 732 1202 q 779 1289 771 1246 l 845 1289 q 797 1169 836 1213 q 696 1126 757 1126 q 658 1131 678 1126 q 609 1152 638 1136 l 545 1184 "},"F":{"x_min":118,"x_max":860,"ha":905,"o":"m 118 0 l 118 1003 l 860 1003 l 860 908 l 218 908 l 218 562 l 790 562 l 790 464 l 218 464 l 218 0 l 118 0 "},"*":{"x_min":112,"x_max":583,"ha":694,"o":"m 237 580 l 179 621 l 290 773 l 112 831 l 134 898 l 313 841 l 313 1029 l 382 1029 l 382 841 l 560 898 l 583 831 l 404 773 l 515 621 l 457 580 l 347 731 l 237 580 "},"†":{"x_min":83,"x_max":816,"ha":900,"o":"m 401 -237 l 401 579 l 83 579 l 83 672 l 401 672 l 401 1003 l 498 1003 l 498 672 l 816 672 l 816 579 l 498 579 l 498 -237 l 401 -237 "},"∕":{"x_min":-289,"x_max":579,"ha":289,"o":"m -289 -26 l 488 1003 l 579 1003 l -200 -26 l -289 -26 "},"°":{"x_min":40,"x_max":416,"ha":457,"o":"m 369 795 q 327 896 369 854 q 228 938 286 938 q 128 896 170 938 q 87 795 87 854 q 128 695 87 736 q 228 654 169 654 q 328 695 287 654 q 369 795 369 736 m 229 985 q 361 929 306 985 q 416 796 416 874 q 360 662 416 718 q 227 607 305 607 q 94 661 148 607 q 40 796 40 716 q 95 930 40 875 q 229 985 150 985 "},"å":{"x_min":81,"x_max":855.0625,"ha":900,"o":"m 383 941 q 406 884 383 906 q 469 863 430 863 q 532 884 508 863 q 557 941 557 906 q 533 998 557 977 q 469 1020 509 1020 q 406 999 429 1020 q 383 941 383 978 m 314 941 q 356 1040 314 1004 q 470 1076 398 1076 q 585 1040 543 1076 q 627 941 627 1004 q 585 842 627 878 q 470 807 543 807 q 356 842 398 807 q 314 941 314 878 m 675 399 q 595 371 648 384 q 421 341 542 359 q 220 286 262 315 q 178 200 178 258 q 229 104 178 140 q 368 69 281 69 q 589 132 504 69 q 675 298 675 196 l 675 310 l 675 399 m 854 92 l 855 9 q 812 0 832 2 q 774 -4 792 -4 q 702 22 725 -4 q 675 112 680 48 q 540 13 614 44 q 359 -18 465 -18 q 153 39 226 -18 q 81 203 81 97 q 100 291 81 252 q 158 360 119 330 q 241 397 188 382 q 419 430 293 412 q 495 439 447 433 q 675 543 675 461 q 623 635 675 604 q 471 667 571 667 q 279 624 345 667 q 209 496 214 581 l 113 496 q 207 689 121 625 q 458 754 294 754 q 628 733 564 754 q 729 666 692 712 q 763 600 753 637 q 773 486 773 563 l 773 445 l 773 160 q 781 98 773 111 q 813 86 790 86 q 833 87 823 86 q 854 92 844 89 "},"0":{"x_min":71,"x_max":830,"ha":900,"o":"m 171 489 q 240 175 171 279 q 450 71 310 71 q 660 175 590 71 q 730 489 730 279 q 660 802 730 698 q 450 907 590 907 q 240 802 310 907 q 171 489 171 698 m 71 489 q 168 870 71 738 q 450 1003 266 1003 q 732 870 634 1003 q 830 489 830 738 q 731 106 830 239 q 450 -26 633 -26 q 169 106 267 -26 q 71 489 71 239 "},"":{"x_min":77,"x_max":1021,"ha":1097,"o":"m 567 824 q 566 834 566 828 q 565 849 565 839 q 630 1005 565 934 q 790 1094 694 1077 q 791 1079 791 1087 q 791 1052 791 1070 q 721 893 791 963 q 583 823 651 823 l 578 823 q 573 824 576 823 q 567 824 570 824 m 1021 273 q 881 40 943 105 q 743 -24 820 -24 q 654 -1 709 -24 q 571 20 599 20 q 482 -1 540 20 q 396 -24 424 -24 q 309 5 353 -24 q 221 95 265 35 q 114 295 152 190 q 77 499 77 401 q 161 741 77 648 q 380 835 246 835 q 485 811 426 835 q 569 788 544 788 q 652 811 592 788 q 755 835 711 835 q 890 808 830 835 q 999 725 950 781 q 896 626 929 681 q 863 502 863 571 q 903 366 863 425 q 1021 273 944 307 "},"”":{"x_min":144,"x_max":483,"ha":627,"o":"m 144 880 l 144 1003 l 257 1003 l 257 840 q 231 723 257 762 q 144 664 205 684 l 144 727 q 183 763 171 741 q 196 820 196 785 l 196 880 l 144 880 m 370 880 l 370 1003 l 483 1003 l 483 840 q 457 723 483 762 q 370 664 431 684 l 370 727 q 409 763 397 741 q 422 820 422 785 l 422 880 l 370 880 "},"ö":{"x_min":57,"x_max":844,"ha":900,"o":"m 155 368 q 234 149 155 230 q 449 68 314 68 q 664 149 584 68 q 744 368 744 231 q 664 586 744 505 q 449 668 584 668 q 234 586 314 668 q 155 368 155 505 m 57 368 q 165 653 57 544 q 450 762 273 762 q 734 652 625 762 q 844 368 844 543 q 734 83 844 192 q 450 -26 625 -26 q 165 83 273 -26 q 57 368 57 192 m 581 884 l 581 997 l 677 997 l 677 884 l 581 884 m 224 884 l 224 997 l 320 997 l 320 884 l 224 884 "},"Õ":{"x_min":69,"x_max":1124,"ha":1193,"o":"m 1124 501 q 982 114 1124 255 q 596 -26 841 -26 q 209 114 349 -26 q 69 501 69 255 q 209 888 69 747 q 596 1029 349 1029 q 982 888 841 1029 q 1124 501 1124 747 m 596 71 q 908 185 795 71 q 1021 501 1021 299 q 908 816 1021 702 q 596 931 795 931 q 283 816 396 931 q 171 501 171 702 q 283 185 171 299 q 596 71 396 71 m 560 1184 q 544 1191 553 1187 q 480 1212 505 1212 q 428 1190 447 1212 q 401 1126 408 1169 l 335 1126 q 382 1244 343 1201 q 483 1288 422 1288 q 523 1282 503 1288 q 570 1262 543 1277 l 633 1231 q 650 1222 639 1228 q 714 1202 690 1202 q 766 1224 747 1202 q 794 1289 786 1246 l 860 1289 q 812 1169 851 1213 q 711 1126 772 1126 q 673 1131 693 1126 q 624 1152 653 1136 l 560 1184 "},"ć":{"x_min":57,"x_max":811,"ha":848,"o":"m 713 268 l 811 268 q 694 55 795 137 q 450 -26 594 -26 q 165 83 273 -26 q 57 368 57 192 q 165 653 57 544 q 450 762 273 762 q 687 687 589 762 q 804 492 785 612 l 704 492 q 611 624 677 578 q 446 670 544 670 q 235 586 316 670 q 155 367 155 503 q 235 149 155 230 q 450 68 315 68 q 622 122 550 68 q 713 268 694 177 m 386 838 l 505 1043 l 632 1043 l 468 838 l 386 838 "},"þ":{"x_min":104,"x_max":883,"ha":939,"o":"m 201 368 q 279 153 201 233 q 491 74 358 74 q 703 154 624 74 q 783 368 783 234 q 703 582 783 502 q 491 663 624 663 q 279 583 358 663 q 201 368 201 503 m 104 -264 l 104 1003 l 201 1003 l 201 607 q 327 717 256 682 q 492 753 397 753 q 775 646 668 753 q 883 368 883 540 q 774 89 883 196 q 492 -18 666 -18 q 328 16 398 -18 q 201 126 257 51 l 201 -264 l 104 -264 "},"]":{"x_min":38,"x_max":321,"ha":425,"o":"m 321 1003 l 321 -264 l 38 -264 l 38 -181 l 231 -181 l 231 920 l 38 920 l 38 1003 l 321 1003 "},"8":{"x_min":69,"x_max":831,"ha":900,"o":"m 169 280 q 241 125 169 179 q 450 72 314 72 q 658 125 585 72 q 731 280 731 179 q 655 433 731 377 q 450 489 580 489 q 244 432 319 489 q 169 280 169 376 m 213 743 q 273 621 213 662 q 450 581 333 581 q 627 621 567 581 q 687 743 687 662 q 627 868 687 826 q 450 911 567 911 q 272 868 332 911 q 213 743 213 826 m 283 533 q 157 619 199 563 q 115 755 115 675 q 204 936 115 870 q 450 1003 293 1003 q 695 936 606 1003 q 785 755 785 870 q 742 619 785 675 q 616 533 700 563 q 777 444 724 509 q 831 269 831 378 q 731 51 831 129 q 450 -26 631 -26 q 168 51 268 -26 q 69 269 69 129 q 122 444 69 378 q 283 533 175 509 "},"R":{"x_min":118,"x_max":987,"ha":1051,"o":"m 574 909 l 218 909 l 218 525 l 587 525 q 793 570 730 525 q 857 718 857 615 q 793 865 857 821 q 574 909 730 909 m 118 0 l 118 1003 l 598 1003 q 867 935 777 1003 q 958 733 958 867 q 916 573 958 633 q 784 483 874 513 q 893 432 860 471 q 938 293 926 394 q 947 185 942 254 q 987 0 957 41 l 870 0 q 845 161 851 57 q 835 293 839 264 q 782 399 826 367 q 639 431 737 431 l 218 431 l 218 0 l 118 0 "},"o":{"x_min":57,"x_max":844,"ha":900,"o":"m 155 368 q 234 149 155 230 q 449 68 314 68 q 664 149 584 68 q 744 368 744 231 q 664 586 744 505 q 449 668 584 668 q 234 586 314 668 q 155 368 155 505 m 57 368 q 165 653 57 544 q 450 762 273 762 q 734 652 625 762 q 844 368 844 543 q 734 83 844 192 q 450 -26 625 -26 q 165 83 273 -26 q 57 368 57 192 "},"5":{"x_min":67,"x_max":829,"ha":900,"o":"m 67 255 l 169 255 q 252 116 184 162 q 439 70 320 70 q 650 137 572 70 q 729 317 729 204 q 656 494 729 433 q 446 556 584 556 q 274 523 342 556 q 192 433 207 490 l 98 433 l 188 978 l 760 978 l 760 880 l 263 880 l 209 567 q 326 629 261 608 q 468 650 391 650 q 731 561 634 650 q 829 322 829 473 q 723 67 829 161 q 434 -26 617 -26 q 184 44 276 -26 q 67 255 91 115 "},"õ":{"x_min":57,"x_max":844,"ha":900,"o":"m 155 368 q 234 149 155 230 q 449 68 314 68 q 664 149 584 68 q 744 368 744 231 q 664 586 744 505 q 449 668 584 668 q 234 586 314 668 q 155 368 155 505 m 57 368 q 165 653 57 544 q 450 762 273 762 q 734 652 625 762 q 844 368 844 543 q 734 83 844 192 q 450 -26 625 -26 q 165 83 273 -26 q 57 368 57 192 m 413 917 q 397 924 406 920 q 333 945 358 945 q 281 923 300 945 q 254 859 261 902 l 188 859 q 235 977 196 934 q 336 1021 275 1021 q 376 1015 356 1021 q 423 995 396 1010 l 486 964 q 503 955 492 961 q 567 935 543 935 q 619 957 600 935 q 647 1022 639 979 l 713 1022 q 665 902 704 946 q 564 859 625 859 q 526 864 546 859 q 477 885 506 869 l 413 917 "},",":{"x_min":170,"x_max":283,"ha":450,"o":"m 170 0 l 170 122 l 283 122 l 283 -39 q 257 -156 283 -117 q 170 -216 231 -195 l 170 -152 q 208 -117 196 -138 q 221 -59 221 -96 l 221 0 l 170 0 "},"d":{"x_min":57,"x_max":835,"ha":939,"o":"m 739 370 q 659 586 739 506 q 446 667 579 667 q 234 586 314 667 q 155 370 155 505 q 234 156 155 236 q 446 76 314 76 q 659 156 580 76 q 739 370 739 236 m 835 1003 l 835 0 l 739 0 l 739 130 q 612 19 684 55 q 445 -16 541 -16 q 164 90 271 -16 q 57 370 57 197 q 164 650 57 543 q 445 757 271 757 q 609 722 539 757 q 739 612 680 687 l 739 1003 l 835 1003 "},"\"":{"x_min":67,"x_max":320,"ha":386,"o":"m 320 973 l 320 598 l 252 598 l 252 973 l 320 973 m 135 973 l 135 598 l 67 598 l 67 973 l 135 973 "},"˙":{"x_min":290,"x_max":404,"ha":694,"o":"m 290 872 l 290 1007 l 404 1007 l 404 872 l 290 872 "},"ê":{"x_min":57,"x_max":842,"ha":895,"o":"m 164 428 l 732 428 q 646 603 723 537 q 450 670 569 670 q 251 603 329 670 q 164 428 173 537 m 814 234 q 686 44 784 114 q 450 -26 588 -26 q 165 82 273 -26 q 57 368 57 190 q 165 653 57 544 q 450 762 274 762 q 734 654 627 762 q 842 369 842 547 l 842 347 l 161 347 q 244 140 169 213 q 450 68 320 68 q 611 111 544 68 q 705 234 678 155 l 814 234 m 461 984 l 318 838 l 211 838 l 404 1043 l 517 1043 l 711 838 l 603 838 l 461 984 "},"„":{"x_min":144,"x_max":483,"ha":627,"o":"m 144 0 l 144 122 l 257 122 l 257 -39 q 231 -156 257 -117 q 144 -216 205 -195 l 144 -152 q 183 -116 171 -138 q 196 -59 196 -94 l 196 0 l 144 0 m 370 0 l 370 122 l 483 122 l 483 -39 q 457 -156 483 -117 q 370 -216 431 -195 l 370 -152 q 409 -116 397 -138 q 422 -59 422 -94 l 422 0 l 370 0 "},"Â":{"x_min":11,"x_max":1046,"ha":1059,"o":"m 299 407 l 759 407 l 530 919 l 299 407 m 11 0 l 473 1003 l 588 1003 l 1046 0 l 944 0 l 804 310 l 255 310 l 114 0 l 11 0 m 540 1251 l 397 1105 l 290 1105 l 483 1310 l 596 1310 l 790 1105 l 682 1105 l 540 1251 "},"Í":{"x_min":95,"x_max":341,"ha":350,"o":"m 125 0 l 125 1003 l 225 1003 l 225 0 l 125 0 m 95 1105 l 214 1310 l 341 1310 l 177 1105 l 95 1105 "},"´":{"x_min":267,"x_max":513,"ha":694,"o":"m 267 838 l 386 1043 l 513 1043 l 349 838 l 267 838 "},"Ú":{"x_min":119,"x_max":992,"ha":1112,"o":"m 119 1003 l 221 1003 l 221 387 q 301 147 221 223 q 554 71 382 71 q 809 147 728 71 q 891 387 891 224 l 891 1003 l 992 1003 l 992 361 q 879 74 992 174 q 554 -26 766 -26 q 230 73 341 -26 q 119 365 119 173 l 119 1003 m 477 1105 l 596 1310 l 723 1310 l 559 1105 l 477 1105 "},"Ý":{"x_min":17,"x_max":981,"ha":999,"o":"m 449 0 l 449 433 l 17 1003 l 144 1003 l 498 514 l 857 1003 l 981 1003 l 549 433 l 549 0 l 449 0 m 420 1105 l 539 1310 l 666 1310 l 502 1105 l 420 1105 "},"Ω":{"x_min":79.296875,"x_max":991.359375,"ha":1071,"o":"m 991 94 l 991 0 l 598 0 l 598 85 q 809 284 737 169 q 881 538 881 399 q 785 824 881 715 q 536 933 689 933 q 285 824 381 933 q 189 540 189 715 q 261 284 189 399 q 474 85 333 168 l 474 0 l 79 0 l 79 94 l 312 94 q 138 291 195 184 q 82 531 82 399 q 209 887 82 748 q 536 1026 337 1026 q 861 887 733 1026 q 990 532 990 749 q 933 292 990 399 q 758 94 876 185 l 991 94 "},"Ö":{"x_min":69,"x_max":1124,"ha":1193,"o":"m 1124 501 q 982 114 1124 255 q 596 -26 841 -26 q 209 114 349 -26 q 69 501 69 255 q 209 888 69 747 q 596 1029 349 1029 q 982 888 841 1029 q 1124 501 1124 747 m 596 71 q 908 185 795 71 q 1021 501 1021 299 q 908 816 1021 702 q 596 931 795 931 q 283 816 396 931 q 171 501 171 702 q 283 185 171 299 q 596 71 396 71 m 728 1151 l 728 1264 l 824 1264 l 824 1151 l 728 1151 m 371 1151 l 371 1264 l 467 1264 l 467 1151 l 371 1151 "},"z":{"x_min":45,"x_max":736,"ha":781,"o":"m 45 0 l 45 95 l 600 646 l 71 646 l 71 736 l 717 736 l 717 643 l 163 93 l 736 93 l 736 0 l 45 0 "},"™":{"x_min":180,"x_max":933,"ha":1157,"o":"m 636 986 l 748 700 l 854 986 l 933 986 l 933 627 l 885 627 l 885 942 l 765 627 l 732 627 l 606 942 l 606 627 l 557 627 l 557 986 l 636 986 m 472 986 l 472 947 l 355 947 l 355 627 l 299 627 l 299 947 l 180 947 l 180 986 l 472 986 "},"ã":{"x_min":81,"x_max":855.0625,"ha":900,"o":"m 854 92 l 855 9 q 812 0 832 2 q 774 -4 792 -4 q 702 22 725 -4 q 675 112 680 48 q 540 13 614 44 q 359 -18 465 -18 q 153 39 226 -18 q 81 203 81 97 q 100 291 81 252 q 158 360 119 330 q 241 397 188 382 q 419 430 293 412 q 495 439 447 433 q 675 543 675 461 q 623 635 675 604 q 471 667 571 667 q 279 624 345 667 q 209 496 214 581 l 113 496 q 207 689 121 625 q 458 754 294 754 q 628 733 564 754 q 730 665 693 712 q 763 599 753 636 q 773 486 773 563 l 773 445 l 773 160 q 781 98 773 111 q 813 86 790 86 q 833 87 823 86 q 854 92 844 89 m 675 399 q 595 371 648 384 q 421 341 542 359 q 220 286 262 315 q 178 200 178 258 q 229 104 178 140 q 368 69 281 69 q 589 132 504 69 q 675 298 675 196 l 675 310 l 675 399 m 433 917 q 417 924 426 920 q 353 945 378 945 q 301 923 320 945 q 274 859 281 902 l 208 859 q 255 977 216 934 q 356 1021 295 1021 q 396 1015 376 1021 q 443 995 416 1010 l 506 964 q 523 955 512 961 q 587 935 563 935 q 639 957 620 935 q 667 1022 659 979 l 733 1022 q 685 902 724 946 q 584 859 645 859 q 546 864 566 859 q 497 885 526 869 l 433 917 "},"æ":{"x_min":40,"x_max":1415,"ha":1468,"o":"m 736 428 l 1302 428 q 1220 602 1297 535 q 1022 670 1142 670 q 825 602 904 670 q 736 428 745 535 m 638 393 q 558 366 611 378 q 382 336 504 354 q 181 281 223 310 q 139 195 139 253 q 190 99 139 135 q 330 64 242 64 q 554 127 470 64 q 638 296 638 190 l 638 302 l 638 393 m 690 146 q 535 16 626 59 q 318 -26 444 -26 q 112 32 185 -26 q 40 196 40 91 q 59 284 40 245 q 118 353 79 323 q 200 390 148 375 q 379 423 252 405 q 454 432 407 426 q 635 536 635 454 q 583 627 635 596 q 430 658 532 658 q 238 615 304 658 q 168 488 172 573 l 74 488 q 168 682 82 617 q 417 747 254 747 q 610 717 540 747 q 713 623 680 688 q 848 728 772 694 q 1022 762 923 762 q 1308 654 1201 762 q 1415 366 1415 547 l 1415 347 l 733 347 q 816 141 741 216 q 1014 66 892 66 q 1175 110 1109 66 q 1267 234 1240 153 l 1377 234 q 1250 45 1348 116 q 1022 -26 1153 -26 q 823 18 909 -26 q 690 146 737 63 "},"É":{"x_min":118,"x_max":889,"ha":954,"o":"m 118 0 l 118 1003 l 889 1003 l 889 909 l 218 909 l 218 558 l 837 558 l 837 464 l 218 464 l 218 94 l 889 94 l 889 0 l 118 0 m 422 1105 l 541 1310 l 668 1310 l 504 1105 l 422 1105 "},"~":{"x_min":121,"x_max":1038,"ha":1157,"o":"m 1038 432 q 903 359 968 383 q 775 335 838 335 q 599 373 708 335 q 579 380 585 378 l 568 384 q 383 428 449 428 q 264 402 327 428 q 121 319 202 376 l 121 395 q 258 469 192 445 q 383 494 323 494 q 567 452 454 494 q 580 448 575 450 q 601 440 586 445 q 775 400 714 400 q 895 425 833 400 q 1038 508 957 451 l 1038 432 "},"³":{"x_min":45,"x_max":546,"ha":595,"o":"m 45 577 l 112 577 q 161 468 114 505 q 298 432 209 432 q 433 464 386 432 q 480 558 480 496 q 433 644 480 618 q 277 671 386 671 l 253 671 l 253 725 l 268 725 q 409 750 365 725 q 454 830 454 775 q 414 911 454 884 q 295 938 374 938 q 177 899 220 938 q 134 795 134 861 l 67 795 q 132 941 73 891 q 298 991 191 991 q 462 950 404 991 q 520 836 520 909 q 491 748 520 783 q 409 701 462 714 q 509 656 473 694 q 546 558 546 619 q 481 422 546 470 q 299 375 417 375 q 112 427 178 375 q 45 577 47 479 "},"¡":{"x_min":161,"x_max":273,"ha":433,"o":"m 248 768 l 273 366 l 273 0 l 161 0 l 161 366 l 185 768 l 248 768 m 273 1003 l 273 880 l 161 880 l 161 1003 l 273 1003 "},"[":{"x_min":103,"x_max":386,"ha":425,"o":"m 103 -264 l 103 1003 l 386 1003 l 386 920 l 193 920 l 193 -181 l 386 -181 l 386 -264 l 103 -264 "},"%":{"x_min":64,"x_max":1102,"ha":1165,"o":"m 249 -26 l 835 1003 l 917 1003 l 330 -26 l 249 -26 m 731 241 q 768 92 731 143 q 878 42 805 42 q 987 91 951 42 q 1024 241 1024 141 q 987 390 1024 340 q 878 440 951 440 q 768 389 805 440 q 731 241 731 339 m 654 240 q 711 439 654 370 q 878 508 769 508 q 1045 439 988 508 q 1102 240 1102 371 q 1045 41 1102 109 q 878 -26 988 -26 q 711 42 769 -26 q 654 240 654 111 m 142 737 q 179 588 142 639 q 289 538 216 538 q 398 588 361 538 q 435 737 435 638 q 398 886 435 837 q 289 936 361 936 q 179 885 216 936 q 142 737 142 835 m 64 737 q 121 935 64 867 q 289 1003 179 1003 q 456 935 399 1003 q 513 737 513 868 q 456 539 513 607 q 289 471 399 471 q 121 539 179 471 q 64 737 64 607 "},"P":{"x_min":118,"x_max":896,"ha":954,"o":"m 218 509 l 508 509 q 728 553 667 509 q 790 707 790 598 q 728 863 790 818 q 508 909 667 909 l 218 909 l 218 509 m 118 0 l 118 1003 l 526 1003 q 805 930 714 1003 q 896 706 896 857 q 805 483 896 556 q 526 411 714 411 l 218 411 l 218 0 l 118 0 "},"∏":{"x_min":109,"x_max":915,"ha":1023,"o":"m 109 999 l 915 999 l 915 -266 l 801 -266 l 801 899 l 223 899 l 223 -266 l 109 -266 l 109 999 "},"_":{"x_min":0,"x_max":694,"ha":694,"o":"m 694 -260 l 694 -328 l 0 -328 l 0 -260 l 694 -260 "},"ñ":{"x_min":102,"x_max":786,"ha":885,"o":"m 102 0 l 102 736 l 195 736 l 195 600 q 326 712 248 674 q 502 751 404 751 q 717 684 648 751 q 786 476 786 617 l 786 0 l 690 0 l 690 413 q 643 609 690 554 q 486 664 597 664 q 279 595 360 664 q 198 419 198 527 l 198 0 l 102 0 m 429 917 q 413 924 422 920 q 349 945 374 945 q 297 923 316 945 q 270 859 277 902 l 204 859 q 251 977 212 934 q 352 1021 291 1021 q 392 1015 372 1021 q 439 995 412 1010 l 502 964 q 519 955 508 961 q 583 935 559 935 q 635 957 616 935 q 663 1022 655 979 l 729 1022 q 681 902 720 946 q 580 859 641 859 q 542 864 562 859 q 493 885 522 869 l 429 917 "},"‚":{"x_min":144,"x_max":257,"ha":401,"o":"m 144 0 l 144 122 l 257 122 l 257 -39 q 231 -156 257 -117 q 144 -216 205 -195 l 144 -152 q 183 -116 171 -138 q 196 -59 196 -94 l 196 0 l 144 0 "},"Æ":{"x_min":5,"x_max":1529,"ha":1596,"o":"m 5 0 l 552 1003 l 1529 1003 l 1529 909 l 858 909 l 858 558 l 1477 558 l 1477 464 l 858 464 l 858 94 l 1529 94 l 1529 0 l 759 0 l 759 310 l 291 310 l 116 0 l 5 0 m 344 407 l 751 407 l 751 912 l 618 912 l 344 407 "},"₣":{"x_min":118,"x_max":1424,"ha":1422,"o":"m 118 0 l 118 1003 l 860 1003 l 860 908 l 218 908 l 218 562 l 790 562 l 790 464 l 218 464 l 218 0 l 118 0 m 1106 0 l 1009 0 l 1009 736 l 1106 736 l 1106 613 q 1196 722 1137 683 q 1327 762 1255 762 q 1374 757 1350 762 q 1424 742 1398 752 l 1424 647 q 1378 658 1399 655 q 1337 662 1357 662 q 1194 615 1251 662 q 1106 475 1136 569 l 1106 0 "},"ğ":{"x_min":57,"x_max":835,"ha":939,"o":"m 835 55 q 815 -91 835 -42 q 748 -179 795 -141 q 621 -242 695 -221 q 450 -264 547 -264 q 210 -206 300 -264 q 112 -46 121 -148 l 212 -46 q 281 -145 222 -112 q 446 -178 340 -178 q 671 -126 604 -178 q 739 46 739 -74 l 739 127 q 609 17 679 52 q 445 -18 539 -18 q 164 88 271 -18 q 57 368 57 195 q 164 647 57 541 q 445 754 271 754 q 609 717 536 754 q 739 607 681 681 l 739 736 l 835 736 l 835 55 m 739 368 q 659 582 739 502 q 446 662 580 662 q 234 581 314 662 q 155 368 155 501 q 234 153 155 233 q 446 74 314 74 q 659 153 580 74 q 739 368 739 233 m 239 1034 l 308 1034 q 353 947 313 976 q 469 918 394 918 q 585 947 544 918 q 630 1034 625 976 l 700 1034 q 631 885 688 933 q 469 837 575 837 q 307 885 363 837 q 239 1034 250 933 "},"ª":{"x_min":61,"x_max":640.03125,"ha":675,"o":"m 640 552 l 640 494 q 608 487 623 489 q 580 485 593 485 q 526 503 543 485 q 506 565 510 521 q 405 495 461 517 q 268 474 348 474 q 115 514 169 474 q 61 628 61 554 q 75 691 61 663 q 119 738 90 719 q 181 765 142 755 q 315 787 221 776 q 371 794 335 789 q 506 867 506 810 q 467 931 506 909 q 352 954 427 954 q 209 923 259 954 q 157 834 160 893 l 85 834 q 156 970 91 925 q 344 1015 220 1015 q 471 1000 423 1015 q 548 952 520 985 q 571 907 564 933 q 579 827 579 882 l 579 799 l 579 599 q 585 556 579 565 q 609 547 592 547 q 624 548 616 547 q 640 552 631 549 m 506 765 q 441 745 484 755 q 315 726 397 736 q 164 688 194 708 q 134 627 134 667 q 172 560 134 585 q 276 536 210 536 q 442 580 378 536 q 506 696 506 625 l 506 703 l 506 765 "},"Œ":{"x_min":69,"x_max":1678,"ha":1743,"o":"m 907 1003 l 1678 1003 l 1678 913 l 1007 913 l 1007 558 l 1626 558 l 1626 464 l 1007 464 l 1007 102 l 1678 102 l 1678 0 l 907 0 l 907 108 q 762 8 846 42 q 571 -25 678 -25 q 206 118 343 -25 q 69 500 69 262 q 207 884 69 740 q 576 1029 346 1029 q 771 989 685 1029 q 907 876 857 949 l 907 1003 m 907 245 l 907 739 q 778 882 859 834 q 582 930 696 930 q 282 814 393 930 q 171 500 171 698 q 281 188 171 303 q 582 74 392 74 q 671 81 630 74 q 747 103 713 88 q 835 158 796 123 q 907 245 875 194 "},"T":{"x_min":3,"x_max":877,"ha":880,"o":"m 390 0 l 390 911 l 3 911 l 3 1003 l 877 1003 l 877 911 l 490 911 l 490 0 l 390 0 "},"š":{"x_min":40,"x_max":748,"ha":787,"o":"m 40 232 l 138 232 q 212 108 148 150 q 394 67 276 67 q 583 101 518 67 q 648 202 648 136 q 615 275 648 249 q 511 312 583 301 l 296 344 q 115 410 170 362 q 60 545 60 457 q 147 703 60 645 q 387 762 235 762 q 630 698 542 762 q 720 523 717 635 l 624 523 q 550 635 613 598 q 374 673 487 673 q 216 640 272 673 q 160 550 160 607 q 196 478 160 503 q 329 438 232 452 l 519 409 q 694 344 641 391 q 748 212 748 298 q 655 34 748 95 q 383 -26 562 -26 q 138 41 227 -26 q 40 232 48 108 m 394 894 l 536 1043 l 644 1043 l 450 838 l 337 838 l 144 1043 l 251 1043 l 394 894 "},"Þ":{"x_min":118,"x_max":896,"ha":954,"o":"m 218 313 l 508 313 q 728 357 667 313 q 790 513 790 402 q 728 667 790 622 q 508 713 667 713 l 218 713 l 218 313 m 118 0 l 118 1003 l 218 1003 l 218 807 l 526 807 q 805 734 714 807 q 896 511 896 661 q 805 287 896 360 q 526 215 714 215 l 218 215 l 218 0 l 118 0 "},"j":{"x_min":-44.6875,"x_max":216,"ha":313,"o":"m 119 889 l 119 1003 l 216 1003 l 216 889 l 119 889 m 216 -82 q 179 -224 216 -184 q 52 -264 142 -264 q 1 -261 25 -264 q -44 -254 -22 -259 l -44 -170 q -8 -173 -26 -172 q 30 -175 10 -175 q 100 -155 81 -175 q 119 -62 119 -135 l 119 736 l 216 736 l 216 -82 "},"1":{"x_min":143,"x_max":537,"ha":900,"o":"m 439 0 l 439 733 l 143 733 l 143 816 l 241 816 q 406 858 358 816 q 456 1002 454 900 l 537 1002 l 537 0 l 439 0 "},"›":{"x_min":100,"x_max":343,"ha":431,"o":"m 343 299 l 100 115 l 100 225 l 287 368 l 100 511 l 100 621 l 343 436 l 343 299 "},"<":{"x_min":179,"x_max":978,"ha":1157,"o":"m 978 696 l 284 413 l 978 133 l 978 60 l 179 386 l 179 441 l 978 770 l 978 696 "},"t":{"x_min":19,"x_max":408,"ha":415,"o":"m 241 196 q 259 95 241 114 q 328 77 277 77 q 363 79 344 77 q 406 87 381 81 l 406 4 q 342 -7 372 -3 q 286 -12 313 -12 q 176 31 209 -12 q 144 183 144 75 l 144 656 l 19 656 l 19 736 l 144 736 l 144 952 l 241 952 l 241 736 l 408 736 l 408 656 l 241 656 l 241 196 "},"¬":{"x_min":172,"x_max":984,"ha":1157,"o":"m 984 582 l 984 242 l 919 242 l 919 514 l 172 514 l 172 582 l 984 582 "},"ù":{"x_min":102,"x_max":786,"ha":885,"o":"m 786 736 l 786 0 l 692 0 l 692 135 q 560 22 638 61 q 384 -16 482 -16 q 170 51 239 -16 q 102 259 102 118 l 102 736 l 198 736 l 198 321 q 244 126 198 181 q 401 71 290 71 q 608 139 527 71 q 690 316 690 208 l 690 736 l 786 736 m 459 838 l 295 1043 l 421 1043 l 541 838 l 459 838 "},"ï":{"x_min":-70,"x_max":383,"ha":313,"o":"m 109 0 l 109 736 l 205 736 l 205 0 l 109 0 m 287 884 l 287 997 l 383 997 l 383 884 l 287 884 m -70 884 l -70 997 l 26 997 l 26 884 l -70 884 "},"Ò":{"x_min":69,"x_max":1124,"ha":1193,"o":"m 1124 501 q 982 114 1124 255 q 596 -26 841 -26 q 209 114 349 -26 q 69 501 69 255 q 209 888 69 747 q 596 1029 349 1029 q 982 888 841 1029 q 1124 501 1124 747 m 596 71 q 908 185 795 71 q 1021 501 1021 299 q 908 816 1021 702 q 596 931 795 931 q 283 816 396 931 q 171 501 171 702 q 283 185 171 299 q 596 71 396 71 m 596 1105 l 432 1310 l 558 1310 l 678 1105 l 596 1105 "},"&":{"x_min":74,"x_max":1067,"ha":1034,"o":"m 411 625 q 537 712 497 669 q 577 803 577 754 q 538 887 577 854 q 438 920 499 920 q 337 886 375 920 q 299 798 299 852 q 328 711 299 756 q 411 625 358 665 m 941 0 l 806 129 q 641 12 732 51 q 442 -26 551 -26 q 176 57 279 -26 q 74 271 74 140 q 133 438 74 366 q 328 578 193 511 q 239 689 267 638 q 212 791 212 740 q 274 945 212 888 q 441 1003 336 1003 q 605 946 541 1003 q 669 803 669 890 q 624 674 669 731 q 477 560 579 616 l 793 267 q 838 373 821 321 q 862 474 855 424 l 954 474 q 927 337 949 405 q 863 201 904 269 l 1067 0 l 941 0 m 740 190 l 393 514 q 224 401 275 456 q 174 275 174 345 q 248 121 174 182 q 438 60 322 60 q 600 91 527 60 q 740 190 674 123 "},"":{"x_min":16,"x_max":849.0625,"ha":900,"o":"m 624 371 l 230 371 q 319 148 250 226 q 498 70 389 70 q 659 133 594 70 q 747 312 724 196 l 849 312 q 724 65 819 157 q 500 -26 629 -26 q 251 77 348 -26 q 131 371 154 181 l 16 371 l 39 428 l 126 428 q 125 450 125 438 q 125 487 125 463 q 125 528 125 514 q 126 553 125 541 l 25 553 l 49 610 l 131 610 q 254 899 155 796 q 507 1003 353 1003 q 738 918 647 1003 q 845 692 828 834 l 743 692 q 664 854 722 801 q 505 907 605 907 q 320 831 390 907 q 231 610 250 755 l 724 610 l 699 553 l 226 553 q 225 529 225 542 q 225 489 225 516 q 225 450 225 462 q 226 428 225 438 l 648 428 l 624 371 "},"˝":{"x_min":211,"x_max":582,"ha":694,"o":"m 386 838 l 466 1044 l 582 1044 l 451 838 l 386 838 m 211 838 l 291 1044 l 408 1044 l 276 838 l 211 838 "},"I":{"x_min":125,"x_max":225,"ha":350,"o":"m 125 0 l 125 1003 l 225 1003 l 225 0 l 125 0 "},"G":{"x_min":69,"x_max":1063,"ha":1154,"o":"m 971 182 q 819 27 918 81 q 581 -26 719 -26 q 208 116 348 -26 q 69 501 69 259 q 209 888 69 747 q 596 1029 349 1029 q 907 934 784 1029 q 1046 683 1031 839 l 940 683 q 827 866 916 803 q 590 930 737 930 q 283 815 395 930 q 171 501 171 701 q 282 187 171 304 q 583 71 394 71 q 851 162 741 71 q 961 381 961 253 l 961 432 l 646 432 l 646 519 l 1063 519 l 1063 0 l 982 0 l 971 182 "},"`":{"x_min":182,"x_max":428,"ha":694,"o":"m 346 838 l 182 1043 l 308 1043 l 428 838 l 346 838 "},"·":{"x_min":153,"x_max":297,"ha":450,"o":"m 153 488 q 173 538 153 518 q 225 559 194 559 q 276 538 255 559 q 297 488 297 518 q 276 437 297 458 q 225 416 255 416 q 173 437 194 416 q 153 488 153 458 "},"¿":{"x_min":65,"x_max":774,"ha":814,"o":"m 494 762 l 494 723 q 471 625 494 665 q 363 518 449 585 q 324 488 349 507 q 174 272 174 373 q 239 122 174 178 q 417 67 305 67 q 600 134 532 67 q 668 316 668 202 l 668 319 l 774 319 l 774 300 q 679 61 774 149 q 421 -26 584 -26 q 161 55 257 -26 q 65 273 65 136 q 76 359 65 320 q 112 431 88 398 q 255 561 149 484 q 300 594 286 583 q 363 661 346 629 q 381 740 381 693 q 382 746 381 741 q 383 753 383 751 q 383 756 383 755 q 381 762 383 758 l 494 762 m 494 1003 l 494 880 l 381 880 l 381 1003 l 494 1003 "},"ý":{"x_min":-17,"x_max":754,"ha":749,"o":"m 374 -88 q 273 -232 324 -199 q 134 -265 223 -265 q 97 -261 117 -265 q 51 -251 77 -258 l 51 -159 q 105 -168 82 -165 q 145 -172 128 -172 q 237 -137 201 -172 q 319 2 273 -102 l -17 736 l 94 736 l 369 98 l 646 736 l 754 736 l 374 -88 m 295 838 l 414 1043 l 541 1043 l 377 838 l 295 838 "},"º":{"x_min":43,"x_max":634,"ha":675,"o":"m 117 746 q 177 592 117 649 q 338 535 237 535 q 499 592 439 535 q 559 746 559 649 q 499 899 559 842 q 338 956 439 956 q 177 899 237 956 q 117 746 117 842 m 43 746 q 124 945 43 869 q 338 1021 205 1021 q 552 945 470 1021 q 634 746 634 869 q 552 546 634 622 q 338 470 470 470 q 124 546 205 470 q 43 746 43 622 "},"∞":{"x_min":158,"x_max":1000,"ha":1157,"o":"m 608 379 q 690 278 643 311 q 798 245 738 245 q 916 295 870 245 q 962 425 962 346 q 919 552 962 502 q 813 603 877 603 q 708 552 755 603 q 608 379 661 502 m 549 453 q 467 553 514 520 q 359 586 420 586 q 241 535 287 586 q 196 407 196 485 q 238 280 196 331 q 344 230 281 230 q 450 280 403 230 q 549 453 497 331 m 568 489 q 669 628 616 586 q 792 671 721 671 q 938 598 876 671 q 1000 418 1000 525 q 944 232 1000 303 q 801 162 889 162 q 687 203 736 162 q 588 341 637 244 q 488 204 540 246 q 370 162 435 162 q 219 234 281 162 q 158 415 158 306 q 213 600 158 530 q 356 671 268 671 q 472 627 422 671 q 568 489 523 584 "},";":{"x_min":161,"x_max":273,"ha":433,"o":"m 161 570 l 161 692 l 273 692 l 273 570 l 161 570 m 161 0 l 161 122 l 273 122 l 273 -39 q 247 -156 273 -117 q 161 -216 222 -195 l 161 -152 q 200 -116 188 -138 q 212 -59 212 -94 l 212 0 l 161 0 "},"6":{"x_min":69,"x_max":843,"ha":900,"o":"m 188 314 q 262 136 188 202 q 462 71 336 71 q 669 137 593 71 q 745 316 745 203 q 675 492 745 429 q 480 555 605 555 q 266 490 344 555 q 188 314 188 426 m 172 488 q 300 606 219 566 q 490 647 380 647 q 747 557 652 647 q 843 315 843 467 q 738 66 843 158 q 457 -26 634 -26 q 163 97 258 -26 q 69 482 69 221 q 168 874 69 745 q 473 1003 268 1003 q 710 933 618 1003 q 812 750 803 863 l 714 750 q 637 870 699 829 q 469 911 574 911 q 245 813 318 911 q 172 516 172 716 l 172 488 "},"n":{"x_min":102,"x_max":786,"ha":885,"o":"m 102 0 l 102 736 l 195 736 l 195 600 q 326 712 248 674 q 502 751 404 751 q 717 684 648 751 q 786 476 786 617 l 786 0 l 690 0 l 690 413 q 643 609 690 554 q 486 664 597 664 q 279 595 360 664 q 198 419 198 527 l 198 0 l 102 0 "},"¤":{"x_min":16,"x_max":849.0625,"ha":900,"o":"m 624 371 l 230 371 q 319 148 250 226 q 498 70 389 70 q 659 133 594 70 q 747 312 724 196 l 849 312 q 724 65 819 157 q 500 -26 629 -26 q 251 77 348 -26 q 131 371 154 181 l 16 371 l 39 428 l 126 428 q 125 450 125 438 q 125 487 125 463 q 125 528 125 514 q 126 553 125 541 l 25 553 l 49 610 l 131 610 q 254 899 155 796 q 507 1003 353 1003 q 738 918 647 1003 q 845 692 828 834 l 743 692 q 664 854 722 801 q 505 907 605 907 q 320 831 390 907 q 231 610 250 755 l 724 610 l 699 553 l 226 553 q 225 529 225 542 q 225 489 225 516 q 225 450 225 462 q 226 428 225 438 l 648 428 l 624 371 "},"∂":{"x_min":85,"x_max":623,"ha":701,"o":"m 510 401 q 522 510 518 457 q 526 611 526 562 q 499 775 526 718 q 421 832 472 832 q 348 785 387 832 q 278 739 309 739 q 243 752 257 739 q 228 784 228 766 q 271 857 228 826 q 376 888 314 888 q 555 785 488 888 q 623 510 623 683 q 530 132 623 283 q 304 -18 438 -18 q 146 54 207 -18 q 85 242 85 126 q 159 449 85 364 q 336 534 233 534 q 445 501 403 534 q 510 401 488 469 m 483 314 q 452 444 483 400 q 361 489 421 489 q 234 404 284 489 q 185 186 185 320 q 215 58 185 100 q 306 16 245 16 q 432 101 382 16 q 483 314 483 186 "},"p":{"x_min":104,"x_max":883,"ha":939,"o":"m 201 368 q 279 153 201 233 q 491 74 358 74 q 703 154 624 74 q 783 368 783 234 q 703 582 783 502 q 491 663 624 663 q 279 583 358 663 q 201 368 201 503 m 104 -264 l 104 736 l 201 736 l 201 607 q 327 717 256 682 q 492 753 397 753 q 775 646 668 753 q 883 368 883 540 q 774 89 883 196 q 492 -18 666 -18 q 328 17 398 -18 q 201 126 257 52 l 201 -264 l 104 -264 "},"‡":{"x_min":78,"x_max":821,"ha":900,"o":"m 404 608 l 79 608 l 79 698 l 404 698 l 404 1003 l 498 1003 l 498 698 l 821 698 l 821 608 l 498 608 l 498 158 l 820 158 l 820 68 l 498 68 l 498 -237 l 404 -237 l 404 68 l 78 68 l 78 158 l 404 158 l 404 608 "},"√":{"x_min":37,"x_max":865,"ha":865,"o":"m 865 1110 l 865 1061 l 780 1061 l 377 -28 l 349 -28 l 127 581 l 49 555 l 37 594 l 203 652 l 388 147 l 744 1110 l 865 1110 "},"S":{"x_min":81,"x_max":917,"ha":999,"o":"m 81 331 l 182 331 l 182 325 q 268 141 182 210 q 499 72 355 72 q 726 127 642 72 q 811 278 811 183 q 762 387 811 350 q 561 451 714 424 l 348 489 q 169 571 228 509 q 111 739 111 634 q 214 950 111 871 q 492 1029 317 1029 q 778 947 674 1029 q 887 720 882 865 l 787 720 q 703 881 777 826 q 495 937 628 937 q 288 885 364 937 q 213 744 213 833 q 265 636 213 673 q 463 573 318 598 l 654 540 q 853 454 790 515 q 917 282 917 392 q 809 55 917 137 q 510 -26 702 -26 q 195 65 310 -26 q 81 316 81 157 l 81 331 "},"/":{"x_min":-12,"x_max":456,"ha":386,"o":"m 63 -129 l -12 -129 l 379 1029 l 456 1029 l 63 -129 "},"y":{"x_min":-17,"x_max":754,"ha":749,"o":"m 374 -88 q 273 -232 324 -199 q 134 -265 223 -265 q 97 -261 117 -265 q 51 -251 77 -258 l 51 -159 q 105 -168 82 -165 q 145 -172 128 -172 q 237 -137 201 -172 q 319 2 273 -102 l -17 736 l 94 736 l 369 98 l 646 736 l 754 736 l 374 -88 "},"≈":{"x_min":121,"x_max":1038,"ha":1157,"o":"m 1038 318 q 901 244 966 268 q 775 220 837 220 q 578 267 707 220 q 383 314 449 314 q 267 289 327 314 q 121 205 207 264 l 121 280 q 258 354 193 330 q 383 379 322 379 q 585 332 457 379 q 775 286 714 286 q 894 310 833 286 q 1038 393 954 334 l 1038 318 m 1038 547 q 903 473 967 497 q 775 449 838 449 q 577 496 705 449 q 383 543 449 543 q 267 518 327 543 q 121 434 207 493 l 121 510 q 257 584 192 560 q 383 609 322 609 q 585 562 457 609 q 775 515 714 515 q 891 538 832 515 q 1038 621 950 561 l 1038 547 "},"g":{"x_min":57,"x_max":835,"ha":939,"o":"m 835 55 q 815 -91 835 -42 q 748 -179 795 -141 q 621 -242 695 -221 q 450 -264 547 -264 q 210 -206 300 -264 q 112 -46 121 -148 l 212 -46 q 281 -145 222 -112 q 446 -178 340 -178 q 671 -126 604 -178 q 739 46 739 -74 l 739 127 q 609 17 679 52 q 445 -18 539 -18 q 164 88 271 -18 q 57 368 57 195 q 164 647 57 541 q 445 754 271 754 q 609 717 536 754 q 739 607 681 681 l 739 736 l 835 736 l 835 55 m 739 368 q 659 582 739 502 q 446 662 580 662 q 234 581 314 662 q 155 368 155 501 q 234 153 155 233 q 446 74 314 74 q 659 153 580 74 q 739 368 739 233 "},"²":{"x_min":44.46875,"x_max":533,"ha":595,"o":"m 44 390 l 44 393 q 60 473 44 437 q 112 543 77 510 q 167 583 128 560 q 295 652 206 607 q 340 675 311 660 q 423 722 407 708 q 457 763 447 742 q 468 813 468 784 q 423 904 468 871 q 302 937 379 937 q 164 896 212 937 q 116 781 116 856 l 54 781 l 54 785 q 119 937 54 881 q 299 993 185 993 q 470 944 407 993 q 533 812 533 895 q 499 713 533 754 q 338 608 465 673 q 160 508 200 539 q 117 449 120 476 l 528 449 l 528 390 l 44 390 "},"ë":{"x_min":57,"x_max":842,"ha":895,"o":"m 164 428 l 732 428 q 646 603 723 537 q 450 670 569 670 q 251 603 329 670 q 164 428 173 537 m 814 234 q 686 44 784 114 q 450 -26 588 -26 q 165 82 273 -26 q 57 368 57 190 q 165 653 57 544 q 450 762 274 762 q 734 654 627 762 q 842 369 842 547 l 842 347 l 161 347 q 244 140 169 213 q 450 68 320 68 q 611 111 544 68 q 705 234 678 155 l 814 234 m 592 884 l 592 997 l 688 997 l 688 884 l 592 884 m 235 884 l 235 997 l 331 997 l 331 884 l 235 884 "},"–":{"x_min":0,"x_max":694,"ha":694,"o":"m 0 333 l 0 404 l 694 404 l 694 333 l 0 333 "},"ƒ":{"x_min":107,"x_max":794,"ha":900,"o":"m 414 425 l 254 425 l 269 498 l 430 498 l 488 773 q 562 960 519 917 q 694 1004 605 1004 q 740 1001 714 1004 q 794 993 765 998 l 776 908 q 736 914 756 912 q 695 917 716 917 q 628 894 649 917 q 591 800 606 872 l 527 498 l 686 498 l 670 425 l 512 425 l 410 -51 q 337 -238 380 -195 q 206 -282 294 -282 q 156 -279 180 -282 q 107 -273 132 -277 l 124 -186 q 168 -193 149 -191 q 203 -196 187 -196 q 271 -173 250 -196 q 308 -79 292 -151 l 414 425 "},"J":{"x_min":62,"x_max":698,"ha":821,"o":"m 63 336 l 163 336 q 163 331 163 335 q 161 289 161 303 q 215 122 161 178 q 377 67 270 67 q 547 127 497 67 q 598 336 598 188 l 598 1003 l 698 1003 l 698 355 q 685 181 698 235 q 642 87 672 127 q 535 3 601 32 q 389 -26 470 -26 q 145 56 228 -26 q 62 297 62 138 q 62 321 62 313 q 63 336 62 329 "},"Ã":{"x_min":11,"x_max":1046,"ha":1059,"o":"m 299 407 l 759 407 l 530 919 l 299 407 m 11 0 l 473 1003 l 588 1003 l 1046 0 l 944 0 l 804 310 l 255 310 l 114 0 l 11 0 m 503 1184 q 487 1191 496 1187 q 423 1212 448 1212 q 371 1190 390 1212 q 344 1126 351 1169 l 278 1126 q 325 1244 286 1201 q 426 1288 365 1288 q 466 1282 446 1288 q 513 1262 486 1277 l 576 1231 q 593 1222 582 1228 q 657 1202 633 1202 q 709 1224 690 1202 q 737 1289 729 1246 l 803 1289 q 755 1169 794 1213 q 654 1126 715 1126 q 616 1131 636 1126 q 567 1152 596 1136 l 503 1184 "},"©":{"x_min":82,"x_max":1075,"ha":1157,"o":"m 727 620 q 676 704 715 674 q 580 734 638 734 q 451 669 497 734 q 405 488 405 605 q 451 312 405 376 q 580 249 498 249 q 682 283 640 249 q 736 376 725 317 l 814 376 q 740 237 806 291 q 576 183 674 183 q 387 265 456 183 q 318 492 318 348 q 390 713 318 630 q 583 797 463 797 q 736 748 674 797 q 807 620 799 699 l 727 620 m 1021 489 q 988 659 1021 578 q 893 801 955 739 q 748 897 829 864 q 577 931 668 931 q 408 898 488 931 q 267 803 329 866 q 169 658 203 738 q 136 489 136 577 q 169 322 136 402 q 266 178 203 242 q 410 82 330 115 q 577 49 490 49 q 747 82 666 49 q 894 180 829 116 q 988 319 956 240 q 1021 489 1021 398 m 577 987 q 770 949 678 987 q 931 841 861 911 q 1038 681 1001 772 q 1075 490 1075 591 q 1038 299 1075 388 q 931 141 1002 210 q 767 31 859 69 q 577 -7 676 -7 q 389 30 479 -7 q 227 140 299 68 q 119 300 156 210 q 82 490 82 391 q 120 679 82 588 q 230 843 158 770 q 387 950 299 913 q 577 987 476 987 "},"˘":{"x_min":117,"x_max":578,"ha":694,"o":"m 117 1034 l 186 1034 q 231 947 191 976 q 347 918 272 918 q 463 947 422 918 q 508 1034 503 976 l 578 1034 q 509 885 566 933 q 347 837 453 837 q 185 885 241 837 q 117 1034 128 933 "},"≥":{"x_min":179,"x_max":978,"ha":1157,"o":"m 978 94 l 978 28 l 179 28 l 179 94 l 978 94 m 978 529 l 978 472 l 179 200 l 179 271 l 864 499 l 179 729 l 179 802 l 978 529 "},"D":{"x_min":118,"x_max":1055,"ha":1125,"o":"m 483 1003 q 743 981 654 1003 q 897 910 831 960 q 1016 747 977 848 q 1055 501 1055 646 q 1015 254 1055 356 q 894 90 976 153 q 742 20 831 41 q 483 0 654 0 l 118 0 l 118 1003 l 483 1003 m 460 913 l 218 913 l 218 96 l 483 96 q 687 110 615 96 q 812 160 760 125 q 918 292 884 207 q 953 508 953 376 q 918 718 953 634 q 812 849 883 802 q 686 898 760 883 q 460 913 611 913 "},"ÿ":{"x_min":-17,"x_max":754,"ha":749,"o":"m 374 -88 q 273 -232 324 -199 q 134 -265 223 -265 q 97 -261 117 -265 q 51 -251 77 -258 l 51 -159 q 105 -168 82 -165 q 145 -172 128 -172 q 237 -137 201 -172 q 319 2 273 -102 l -17 736 l 94 736 l 369 98 l 646 736 l 754 736 l 374 -88 m 506 884 l 506 997 l 602 997 l 602 884 l 506 884 m 149 884 l 149 997 l 245 997 l 245 884 l 149 884 "},"ł":{"x_min":-20,"x_max":344,"ha":325,"o":"m 114 0 l 114 429 l 15 360 l -20 412 l 114 505 l 114 1003 l 212 1003 l 212 572 l 305 640 l 344 590 l 212 498 l 212 0 l 114 0 "},"Ł":{"x_min":-27,"x_max":856,"ha":895,"o":"m 126 0 l 126 426 l 15 348 l -27 405 l 126 511 l 126 1003 l 225 1003 l 225 580 l 460 743 l 498 684 l 225 492 l 225 94 l 856 94 l 856 0 l 126 0 "},"$":{"x_min":53,"x_max":847,"ha":900,"o":"m 488 86 q 681 137 613 89 q 750 269 750 185 q 696 386 750 350 q 488 440 643 423 l 488 86 m 415 548 l 415 897 q 242 843 305 891 q 179 719 179 796 q 231 605 179 644 q 415 548 284 567 m 53 306 l 150 306 q 227 146 159 203 q 415 86 296 90 l 415 454 q 162 537 245 474 q 79 710 79 600 q 169 898 79 826 q 415 978 259 970 l 415 1087 l 488 1087 l 488 978 q 739 902 651 969 q 837 708 827 834 l 744 708 q 665 841 732 793 q 488 894 599 890 l 488 536 q 769 454 691 511 q 847 282 847 398 q 754 80 847 152 q 488 0 662 7 l 488 -123 l 415 -123 l 415 0 q 157 85 252 5 q 53 306 63 164 "},"w":{"x_min":16,"x_max":1174,"ha":1193,"o":"m 273 0 l 16 736 l 121 736 l 336 90 l 533 736 l 657 736 l 865 90 l 1070 736 l 1174 736 l 921 0 l 807 0 l 596 655 l 390 0 l 273 0 "},"\\":{"x_min":-69,"x_max":399,"ha":386,"o":"m 322 -129 l -69 1029 l 6 1029 l 399 -129 l 322 -129 "},"∫":{"x_min":31,"x_max":636,"ha":668,"o":"m 199 -184 q 278 299 269 -184 q 281 432 279 385 q 347 905 288 761 q 528 1050 406 1050 q 606 1024 576 1050 q 636 959 636 999 q 616 908 636 927 q 563 889 597 889 q 493 936 510 889 q 470 984 476 984 q 391 561 399 984 q 387 365 389 436 q 318 -111 376 28 q 137 -251 260 -251 q 61 -226 91 -251 q 31 -165 31 -202 q 52 -110 31 -130 q 107 -90 73 -90 q 149 -101 131 -90 q 176 -135 166 -112 q 181 -158 179 -142 q 199 -184 184 -184 "},"Ì":{"x_min":10,"x_max":256,"ha":350,"o":"m 125 0 l 125 1003 l 225 1003 l 225 0 l 125 0 m 174 1105 l 10 1310 l 136 1310 l 256 1105 l 174 1105 "},"Ç":{"x_min":69,"x_max":1078,"ha":1125,"o":"m 959 674 q 835 864 929 797 q 594 931 740 931 q 284 816 397 931 q 171 500 171 701 q 280 188 171 305 q 575 72 390 72 q 834 154 727 72 q 972 377 941 237 l 1078 377 q 909 82 1043 191 q 577 -26 774 -26 q 207 117 346 -26 q 69 501 69 261 q 209 888 69 747 q 595 1029 349 1029 q 913 934 789 1029 q 1061 674 1036 840 l 959 674 m 411 -271 l 427 -227 q 506 -246 470 -240 q 570 -253 541 -253 q 643 -236 619 -253 q 668 -187 668 -219 q 651 -147 668 -161 q 602 -134 634 -134 q 575 -136 590 -134 q 526 -146 560 -138 l 498 -125 l 569 0 l 623 0 l 574 -86 q 603 -80 588 -82 q 632 -78 619 -78 q 724 -107 691 -78 q 757 -189 757 -136 q 714 -275 757 -244 q 595 -307 672 -307 q 511 -298 558 -307 q 411 -271 464 -289 "},"C":{"x_min":69,"x_max":1078,"ha":1125,"o":"m 959 674 q 835 864 929 797 q 594 931 740 931 q 284 816 397 931 q 171 500 171 701 q 280 188 171 305 q 575 72 390 72 q 834 154 727 72 q 972 377 941 237 l 1078 377 q 909 82 1043 191 q 577 -26 774 -26 q 207 117 346 -26 q 69 501 69 261 q 209 888 69 747 q 595 1029 349 1029 q 913 934 789 1029 q 1061 674 1036 840 l 959 674 "},"!":{"x_min":161,"x_max":273,"ha":433,"o":"m 185 235 l 161 636 l 161 1003 l 273 1003 l 273 636 l 248 235 l 185 235 m 161 0 l 161 122 l 273 122 l 273 0 l 161 0 "},"ç":{"x_min":57,"x_max":811,"ha":848,"o":"m 713 268 l 811 268 q 694 55 795 137 q 450 -26 594 -26 q 165 83 273 -26 q 57 368 57 192 q 165 653 57 544 q 450 762 273 762 q 687 687 589 762 q 804 492 785 612 l 704 492 q 611 624 677 578 q 446 670 544 670 q 235 586 316 670 q 155 367 155 503 q 235 149 155 230 q 450 68 315 68 q 622 122 550 68 q 713 268 694 177 m 292 -271 l 308 -227 q 387 -246 351 -240 q 451 -253 422 -253 q 524 -236 500 -253 q 549 -187 549 -219 q 532 -147 549 -161 q 483 -134 515 -134 q 456 -136 471 -134 q 407 -146 441 -138 l 379 -125 l 450 0 l 504 0 l 455 -86 q 484 -80 469 -82 q 513 -78 500 -78 q 605 -107 572 -78 q 638 -189 638 -136 q 595 -275 638 -244 q 476 -307 553 -307 q 392 -298 439 -307 q 292 -271 345 -289 "},"È":{"x_min":118,"x_max":889,"ha":954,"o":"m 118 0 l 118 1003 l 889 1003 l 889 909 l 218 909 l 218 558 l 837 558 l 837 464 l 218 464 l 218 94 l 889 94 l 889 0 l 118 0 m 501 1105 l 337 1310 l 463 1310 l 583 1105 l 501 1105 "},"X":{"x_min":10,"x_max":955,"ha":964,"o":"m 10 0 l 421 515 l 39 1003 l 167 1003 l 488 583 l 810 1003 l 935 1003 l 545 516 l 955 0 l 824 0 l 483 446 l 140 0 l 10 0 "},"ô":{"x_min":57,"x_max":844,"ha":900,"o":"m 155 368 q 234 149 155 230 q 449 68 314 68 q 664 149 584 68 q 744 368 744 231 q 664 586 744 505 q 449 668 584 668 q 234 586 314 668 q 155 368 155 505 m 57 368 q 165 653 57 544 q 450 762 273 762 q 734 652 625 762 q 844 368 844 543 q 734 83 844 192 q 450 -26 625 -26 q 165 83 273 -26 q 57 368 57 192 m 450 984 l 307 838 l 200 838 l 393 1043 l 506 1043 l 700 838 l 592 838 l 450 984 "},"đ":{"x_min":57,"x_max":946,"ha":946,"o":"m 739 370 q 659 586 739 506 q 446 667 579 667 q 235 585 315 667 q 155 370 155 504 q 234 156 155 237 q 446 76 314 76 q 659 156 580 76 q 739 370 739 236 m 836 1003 l 836 907 l 946 907 l 946 842 l 836 842 l 836 0 l 739 0 l 739 130 q 610 19 680 54 q 445 -16 539 -16 q 164 90 271 -16 q 57 370 57 197 q 164 650 57 543 q 445 757 271 757 q 608 722 539 757 q 739 612 677 688 l 739 842 l 428 842 l 428 907 l 739 907 l 739 1003 l 836 1003 "},"}":{"x_min":117,"x_max":577,"ha":694,"o":"m 376 750 l 376 586 q 414 438 376 481 q 546 395 453 395 q 561 396 551 395 q 577 397 571 397 l 577 325 q 561 325 571 325 q 546 326 551 326 q 414 283 453 326 q 376 136 376 240 l 376 -29 q 329 -230 376 -181 q 148 -280 282 -280 l 117 -280 l 117 -208 l 143 -208 q 262 -174 231 -208 q 293 -37 293 -141 l 293 127 q 322 290 293 242 q 426 360 351 339 q 322 429 351 381 q 293 592 293 477 l 293 757 q 262 897 293 864 q 147 931 232 931 q 132 930 142 931 q 117 930 122 930 l 117 1002 l 148 1002 q 328 951 281 1002 q 376 750 376 901 "},"â":{"x_min":81,"x_max":855.0625,"ha":900,"o":"m 854 92 l 855 9 q 812 0 832 2 q 774 -4 792 -4 q 702 22 725 -4 q 675 112 680 48 q 540 13 614 44 q 359 -18 465 -18 q 153 39 226 -18 q 81 203 81 97 q 100 291 81 252 q 158 360 119 330 q 241 397 188 382 q 419 430 293 412 q 495 439 447 433 q 675 543 675 461 q 623 635 675 604 q 471 667 571 667 q 279 624 345 667 q 209 496 214 581 l 113 496 q 207 689 121 625 q 458 754 294 754 q 628 733 564 754 q 730 665 693 712 q 763 599 753 636 q 773 486 773 563 l 773 445 l 773 160 q 781 98 773 111 q 813 86 790 86 q 833 87 823 86 q 854 92 844 89 m 675 399 q 595 371 648 384 q 421 341 542 359 q 220 286 262 315 q 178 200 178 258 q 229 104 178 140 q 368 69 281 69 q 589 132 504 69 q 675 298 675 196 l 675 310 l 675 399 m 470 984 l 327 838 l 220 838 l 413 1043 l 526 1043 l 720 838 l 612 838 l 470 984 "},"ø":{"x_min":57,"x_max":844,"ha":900,"o":"m 219 169 l 651 598 q 563 651 612 634 q 449 668 513 668 q 234 586 314 668 q 155 368 155 505 q 171 256 155 307 q 219 169 188 204 m 687 556 l 256 132 q 338 84 289 100 q 449 68 386 68 q 664 149 584 68 q 744 368 744 231 q 729 472 744 423 q 687 556 714 520 m 149 99 q 79 220 101 156 q 57 368 57 284 q 165 653 57 544 q 449 762 273 762 q 597 738 530 762 q 720 666 664 714 l 803 751 l 841 712 l 756 628 q 822 509 801 573 q 844 368 844 445 q 734 83 844 192 q 449 -26 625 -26 q 309 -4 373 -26 q 188 62 245 17 l 94 -31 l 58 6 l 149 99 "},"Ä":{"x_min":11,"x_max":1046,"ha":1059,"o":"m 299 407 l 759 407 l 530 919 l 299 407 m 11 0 l 473 1003 l 588 1003 l 1046 0 l 944 0 l 804 310 l 255 310 l 114 0 l 11 0 m 671 1151 l 671 1264 l 767 1264 l 767 1151 l 671 1151 m 314 1151 l 314 1264 l 410 1264 l 410 1151 l 314 1151 "},"‰":{"x_min":64,"x_max":1643,"ha":1706,"o":"m 249 -26 l 835 1003 l 917 1003 l 330 -26 l 249 -26 m 1272 241 q 1309 92 1272 143 q 1419 42 1346 42 q 1528 91 1491 42 q 1565 241 1565 141 q 1528 390 1565 340 q 1419 440 1491 440 q 1309 389 1346 440 q 1272 241 1272 339 m 1194 240 q 1251 439 1194 370 q 1419 508 1309 508 q 1586 439 1529 508 q 1643 240 1643 371 q 1586 41 1643 109 q 1419 -26 1529 -26 q 1251 42 1309 -26 q 1194 240 1194 111 m 731 241 q 768 92 731 143 q 878 42 805 42 q 987 91 951 42 q 1024 241 1024 141 q 987 390 1024 340 q 878 440 951 440 q 768 389 805 440 q 731 241 731 339 m 654 240 q 711 439 654 370 q 878 508 769 508 q 1045 439 988 508 q 1102 240 1102 371 q 1045 41 1102 109 q 878 -26 988 -26 q 711 42 769 -26 q 654 240 654 111 m 142 737 q 179 588 142 639 q 289 538 216 538 q 398 588 361 538 q 435 737 435 638 q 398 886 435 837 q 289 936 361 936 q 179 885 216 936 q 142 737 142 835 m 64 737 q 121 935 64 867 q 289 1003 179 1003 q 456 935 399 1003 q 513 737 513 868 q 456 539 513 607 q 289 471 399 471 q 121 539 179 471 q 64 737 64 607 "},"N":{"x_min":118,"x_max":1044,"ha":1164,"o":"m 118 0 l 118 1003 l 245 1003 l 947 103 l 947 1003 l 1044 1003 l 1044 0 l 910 0 l 215 899 l 215 0 l 118 0 "},"—":{"x_min":0,"x_max":1389,"ha":1389,"o":"m 1389 404 l 1389 333 l 0 333 l 0 404 l 1389 404 "},"2":{"x_min":67.96875,"x_max":808,"ha":900,"o":"m 67 0 l 67 5 q 92 139 67 78 q 169 255 117 199 q 253 320 195 282 q 447 434 312 358 q 510 469 469 447 q 641 552 616 527 q 693 621 678 586 q 708 704 708 655 q 641 855 708 800 q 458 910 575 910 q 250 843 323 910 q 178 651 178 776 l 82 651 l 82 656 q 181 910 82 817 q 455 1004 281 1004 q 713 922 618 1004 q 808 702 808 840 q 755 537 808 605 q 514 364 703 469 q 245 197 306 249 q 179 98 184 146 l 800 97 l 800 0 l 67 0 "},"ü":{"x_min":102,"x_max":786,"ha":885,"o":"m 786 736 l 786 0 l 692 0 l 692 135 q 560 22 638 61 q 384 -16 482 -16 q 170 51 239 -16 q 102 259 102 118 l 102 736 l 198 736 l 198 321 q 244 126 198 181 q 401 71 290 71 q 608 139 527 71 q 690 316 690 208 l 690 736 l 786 736 m 591 884 l 591 997 l 687 997 l 687 884 l 591 884 m 234 884 l 234 997 l 330 997 l 330 884 l 234 884 "},"":{"x_min":19,"x_max":615,"ha":724,"o":"m 144 0 l 144 656 l 19 656 l 19 736 l 144 736 l 144 794 q 177 962 144 920 q 299 1004 211 1004 q 349 999 322 1004 q 408 987 376 995 l 408 902 q 359 912 378 909 q 325 915 341 915 q 258 896 276 915 q 241 808 241 877 l 241 736 l 408 736 l 408 656 l 241 656 l 241 0 l 144 0 m 519 0 l 519 1004 l 615 1004 l 615 0 l 519 0 "},"Ó":{"x_min":69,"x_max":1124,"ha":1193,"o":"m 1124 501 q 982 114 1124 255 q 596 -26 841 -26 q 209 114 349 -26 q 69 501 69 255 q 209 888 69 747 q 596 1029 349 1029 q 982 888 841 1029 q 1124 501 1124 747 m 596 71 q 908 185 795 71 q 1021 501 1021 299 q 908 816 1021 702 q 596 931 795 931 q 283 816 396 931 q 171 501 171 702 q 283 185 171 299 q 596 71 396 71 m 517 1105 l 636 1310 l 763 1310 l 599 1105 l 517 1105 "},"˜":{"x_min":85,"x_max":610,"ha":694,"o":"m 310 917 q 294 924 303 920 q 230 945 255 945 q 178 923 197 945 q 151 859 158 902 l 85 859 q 132 977 93 934 q 233 1021 172 1021 q 273 1015 253 1021 q 320 995 293 1010 l 383 964 q 400 955 389 961 q 464 935 440 935 q 516 957 497 935 q 544 1022 536 979 l 610 1022 q 562 902 601 946 q 461 859 522 859 q 423 864 443 859 q 374 885 403 869 l 310 917 "},"ˇ":{"x_min":97,"x_max":597,"ha":694,"o":"m 347 894 l 489 1043 l 597 1043 l 403 838 l 290 838 l 97 1043 l 204 1043 l 347 894 "},"Ÿ":{"x_min":17,"x_max":981,"ha":999,"o":"m 449 0 l 449 433 l 17 1003 l 144 1003 l 498 514 l 857 1003 l 981 1003 l 549 433 l 549 0 l 449 0 m 631 1151 l 631 1264 l 727 1264 l 727 1151 l 631 1151 m 274 1151 l 274 1264 l 370 1264 l 370 1151 l 274 1151 "},"€":{"x_min":16,"x_max":849.0625,"ha":900,"o":"m 624 371 l 230 371 q 319 148 250 226 q 498 70 389 70 q 659 133 594 70 q 747 312 724 196 l 849 312 q 724 65 819 157 q 500 -26 629 -26 q 251 77 348 -26 q 131 371 154 181 l 16 371 l 39 428 l 126 428 q 125 450 125 438 q 125 487 125 463 q 125 528 125 514 q 126 553 125 541 l 25 553 l 49 610 l 131 610 q 254 899 155 796 q 507 1003 353 1003 q 738 918 647 1003 q 845 692 828 834 l 743 692 q 664 854 722 801 q 505 907 605 907 q 320 831 390 907 q 231 610 250 755 l 724 610 l 699 553 l 226 553 q 225 529 225 542 q 225 489 225 516 q 225 450 225 462 q 226 428 225 438 l 648 428 l 624 371 "},"ß":{"x_min":114,"x_max":808,"ha":857,"o":"m 114 0 l 114 689 q 188 931 114 860 q 440 1003 263 1003 q 678 934 591 1003 q 765 748 765 866 q 724 625 765 678 q 609 547 684 572 q 758 464 709 526 q 808 298 808 402 q 715 71 808 153 q 458 -11 622 -11 q 402 -8 430 -11 q 347 0 374 -5 l 347 88 q 416 80 387 83 q 464 78 445 78 q 645 137 580 78 q 711 301 711 196 q 637 452 711 405 q 405 500 564 500 q 370 499 382 500 q 347 499 357 499 l 347 584 q 371 583 355 584 q 397 583 388 583 q 603 622 539 583 q 667 750 667 661 q 608 873 667 830 q 441 916 550 916 q 263 865 315 916 q 211 689 211 814 l 211 0 l 114 0 "},"s":{"x_min":40,"x_max":748,"ha":787,"o":"m 40 232 l 138 232 q 212 108 148 150 q 394 67 276 67 q 583 101 518 67 q 648 202 648 136 q 615 275 648 249 q 511 312 583 301 l 296 344 q 115 410 170 362 q 60 545 60 457 q 147 703 60 645 q 387 762 235 762 q 630 698 542 762 q 720 523 717 635 l 624 523 q 550 635 613 598 q 374 673 487 673 q 216 640 272 673 q 160 550 160 607 q 196 478 160 503 q 329 438 232 452 l 519 409 q 694 344 641 391 q 748 212 748 298 q 655 34 748 95 q 383 -26 562 -26 q 138 41 227 -26 q 40 232 48 108 "},"?":{"x_min":32,"x_max":739,"ha":814,"o":"m 311 0 l 311 122 l 424 122 l 424 0 l 311 0 m 311 241 l 311 281 q 439 483 311 383 l 440 484 q 481 515 454 495 q 632 729 632 629 q 566 879 632 824 q 387 935 500 935 q 204 867 272 935 q 136 686 136 800 l 136 684 l 32 684 l 32 701 q 125 941 32 853 q 383 1029 219 1029 q 643 947 547 1029 q 739 728 739 866 q 727 642 739 681 q 692 571 715 603 q 548 440 655 518 q 503 407 518 419 q 440 341 457 372 q 424 263 424 310 q 422 256 424 262 q 421 249 421 251 q 421 246 421 247 q 424 241 421 244 l 311 241 "},"c":{"x_min":57,"x_max":811,"ha":848,"o":"m 713 268 l 811 268 q 694 55 795 137 q 450 -26 594 -26 q 165 83 273 -26 q 57 368 57 192 q 165 653 57 544 q 450 762 273 762 q 687 687 589 762 q 804 492 785 612 l 704 492 q 611 624 677 578 q 446 670 544 670 q 235 586 316 670 q 155 367 155 503 q 235 149 155 230 q 450 68 315 68 q 622 122 550 68 q 713 268 694 177 "},"¶":{"x_min":57,"x_max":639,"ha":694,"o":"m 639 956 l 553 956 l 553 0 l 496 0 l 496 956 l 370 956 l 370 0 l 313 0 l 313 530 q 125 599 194 535 q 57 766 57 663 q 129 937 57 872 q 323 1003 202 1003 l 639 1003 l 639 956 "},"•":{"x_min":208,"x_max":609,"ha":819,"o":"m 208 516 q 266 657 208 599 q 409 716 325 716 q 550 657 491 716 q 609 516 609 598 q 549 374 609 433 q 407 315 490 315 q 266 373 324 315 q 208 516 208 432 "},"(":{"x_min":85,"x_max":417,"ha":425,"o":"m 417 1003 q 245 679 300 832 q 191 369 191 526 q 245 58 191 213 q 417 -265 300 -95 l 345 -265 q 148 62 211 -92 q 85 369 85 216 q 147 675 85 522 q 345 1003 210 829 l 417 1003 "},"◊":{"x_min":4,"x_max":682,"ha":686,"o":"m 343 955 l 81 401 l 343 -158 l 604 401 l 343 955 m 343 1121 l 682 401 l 343 -324 l 4 401 l 343 1121 "},"­":{"x_min":77,"x_max":567,"ha":643,"o":"m 77 323 l 77 412 l 567 412 l 567 323 l 77 323 "},":":{"x_min":161,"x_max":273,"ha":433,"o":"m 161 0 l 161 122 l 273 122 l 273 0 l 161 0 m 161 570 l 161 692 l 273 692 l 273 570 l 161 570 "},"Û":{"x_min":119,"x_max":992,"ha":1112,"o":"m 119 1003 l 221 1003 l 221 387 q 301 147 221 223 q 554 71 382 71 q 809 147 728 71 q 891 387 891 224 l 891 1003 l 992 1003 l 992 361 q 879 74 992 174 q 554 -26 766 -26 q 230 73 341 -26 q 119 365 119 173 l 119 1003 m 557 1251 l 414 1105 l 307 1105 l 500 1310 l 613 1310 l 807 1105 l 699 1105 l 557 1251 "},"V":{"x_min":7,"x_max":1032,"ha":1039,"o":"m 455 0 l 7 1003 l 116 1003 l 519 86 l 922 1003 l 1032 1003 l 581 0 l 455 0 "}," ":{"x_min":0,"x_max":0,"ha":900},"@":{"x_min":79,"x_max":1309,"ha":1389,"o":"m 879 566 l 920 651 l 984 651 l 890 270 q 880 228 883 240 q 878 208 878 215 q 897 162 878 179 q 951 146 917 146 q 1023 160 986 146 q 1094 201 1060 174 q 1196 340 1159 253 q 1233 531 1233 426 q 1098 814 1233 704 q 753 925 964 925 q 536 891 635 925 q 359 790 438 857 q 208 593 259 704 q 158 347 158 481 q 198 140 158 229 q 323 -17 239 51 q 488 -103 392 -72 q 692 -135 585 -135 q 919 -101 808 -135 q 1123 -4 1030 -67 l 1149 -41 q 938 -154 1049 -116 q 706 -192 827 -192 q 470 -160 576 -192 q 284 -66 365 -128 q 129 118 179 13 q 79 364 79 224 q 137 622 79 502 q 308 836 195 743 q 510 948 397 910 q 755 986 623 986 q 963 956 864 986 q 1132 872 1062 926 q 1264 717 1220 804 q 1309 527 1309 630 q 1266 317 1309 411 q 1144 160 1224 223 q 1043 104 1096 123 q 934 85 989 85 q 836 110 868 85 q 804 187 804 135 q 804 196 804 190 q 805 207 805 203 q 719 116 770 148 q 605 85 667 85 q 447 141 501 85 q 393 307 393 198 q 484 569 393 462 q 707 677 576 677 q 814 649 771 677 q 879 566 858 621 m 820 318 l 862 485 q 811 584 850 548 q 716 620 772 620 q 544 529 612 620 q 476 301 476 439 q 513 183 476 225 q 616 142 550 142 q 744 190 688 142 q 820 318 800 238 "},"¾":{"x_min":44,"x_max":1386,"ha":1422,"o":"m 1216 193 l 1216 483 l 951 193 l 1216 193 m 1216 0 l 1216 141 l 891 141 l 891 196 l 1218 559 l 1277 559 l 1277 193 l 1386 193 l 1386 141 l 1277 141 l 1277 0 l 1216 0 m 278 -26 l 1055 1003 l 1146 1003 l 366 -26 l 278 -26 m 44 603 l 107 603 q 154 502 109 536 q 285 468 199 468 q 413 498 369 468 q 457 586 457 528 q 412 667 457 643 q 263 692 368 692 l 240 692 l 240 742 l 255 742 q 390 765 348 742 q 432 840 432 788 q 394 916 432 890 q 281 942 356 942 q 169 906 210 942 q 127 807 129 870 l 63 807 q 127 943 70 897 q 285 990 183 990 q 441 952 386 990 q 496 845 496 914 q 468 763 496 796 q 389 719 440 731 q 486 678 451 713 q 521 586 521 643 q 459 459 521 504 q 286 414 397 414 q 107 463 170 414 q 44 603 44 512 "},"i":{"x_min":109,"x_max":205,"ha":313,"o":"m 109 889 l 109 1003 l 205 1003 l 205 889 l 109 889 m 109 0 l 109 736 l 205 736 l 205 0 l 109 0 "},"≤":{"x_min":179,"x_max":978,"ha":1157,"o":"m 978 94 l 978 28 l 179 28 l 179 94 l 978 94 m 978 729 l 292 499 l 978 271 l 978 200 l 179 472 l 179 529 l 978 802 l 978 729 "},"m":{"x_min":102,"x_max":1367,"ha":1464,"o":"m 102 0 l 102 736 l 195 736 l 195 600 q 326 712 248 674 q 502 751 404 751 q 676 713 609 751 q 775 600 743 676 q 907 712 828 674 q 1083 751 985 751 q 1298 684 1229 751 q 1367 476 1367 617 l 1367 0 l 1270 0 l 1270 413 q 1224 609 1270 554 q 1067 664 1178 664 q 859 595 940 664 q 778 419 778 527 l 778 0 l 691 0 l 691 413 q 644 609 691 554 q 486 664 598 664 q 279 595 360 664 q 198 419 198 527 l 198 0 l 102 0 "},"ž":{"x_min":45,"x_max":736,"ha":781,"o":"m 45 0 l 45 95 l 600 646 l 71 646 l 71 736 l 717 736 l 717 643 l 163 93 l 736 93 l 736 0 l 45 0 m 390 894 l 532 1043 l 640 1043 l 446 838 l 333 838 l 140 1043 l 247 1043 l 390 894 "},"á":{"x_min":81,"x_max":855.0625,"ha":900,"o":"m 854 92 l 855 9 q 812 0 832 2 q 774 -4 792 -4 q 702 22 725 -4 q 675 112 680 48 q 540 13 614 44 q 359 -18 465 -18 q 153 39 226 -18 q 81 203 81 97 q 100 291 81 252 q 158 360 119 330 q 241 397 188 382 q 419 430 293 412 q 495 439 447 433 q 675 543 675 461 q 623 635 675 604 q 471 667 571 667 q 279 624 345 667 q 209 496 214 581 l 113 496 q 207 689 121 625 q 458 754 294 754 q 628 733 564 754 q 730 665 693 712 q 763 599 753 636 q 773 486 773 563 l 773 445 l 773 160 q 781 98 773 111 q 813 86 790 86 q 833 87 823 86 q 854 92 844 89 m 675 399 q 595 371 648 384 q 421 341 542 359 q 220 286 262 315 q 178 200 178 258 q 229 104 178 140 q 368 69 281 69 q 589 132 504 69 q 675 298 675 196 l 675 310 l 675 399 m 390 838 l 509 1043 l 636 1043 l 472 838 l 390 838 "},"×":{"x_min":207,"x_max":954,"ha":1157,"o":"m 580 460 l 906 787 l 954 740 l 627 413 l 954 87 l 906 40 l 580 366 l 254 40 l 207 87 l 533 413 l 207 740 l 254 787 l 580 460 "},"İ":{"x_min":118,"x_max":232,"ha":350,"o":"m 125 0 l 125 1003 l 225 1003 l 225 0 l 125 0 m 118 1139 l 118 1274 l 232 1274 l 232 1139 l 118 1139 "},"K":{"x_min":118,"x_max":978,"ha":990,"o":"m 118 0 l 118 1003 l 218 1003 l 218 454 l 838 1003 l 978 1003 l 505 582 l 978 0 l 849 0 l 430 517 l 218 331 l 218 0 l 118 0 "},"7":{"x_min":78,"x_max":798,"ha":900,"o":"m 272 0 q 427 462 318 244 q 710 880 536 680 l 78 880 l 78 978 l 798 978 l 798 863 q 524 435 624 649 q 392 0 424 222 l 272 0 "},"¨":{"x_min":121,"x_max":574,"ha":694,"o":"m 478 884 l 478 997 l 574 997 l 574 884 l 478 884 m 121 884 l 121 997 l 217 997 l 217 884 l 121 884 "},"Y":{"x_min":17,"x_max":981,"ha":999,"o":"m 449 0 l 449 433 l 17 1003 l 144 1003 l 498 514 l 857 1003 l 981 1003 l 549 433 l 549 0 l 449 0 "},"E":{"x_min":118,"x_max":889,"ha":954,"o":"m 118 0 l 118 1003 l 889 1003 l 889 909 l 218 909 l 218 558 l 837 558 l 837 464 l 218 464 l 218 94 l 889 94 l 889 0 l 118 0 "},"Ô":{"x_min":69,"x_max":1124,"ha":1193,"o":"m 1124 501 q 982 114 1124 255 q 596 -26 841 -26 q 209 114 349 -26 q 69 501 69 255 q 209 888 69 747 q 596 1029 349 1029 q 982 888 841 1029 q 1124 501 1124 747 m 596 71 q 908 185 795 71 q 1021 501 1021 299 q 908 816 1021 702 q 596 931 795 931 q 283 816 396 931 q 171 501 171 702 q 283 185 171 299 q 596 71 396 71 m 597 1251 l 454 1105 l 347 1105 l 540 1310 l 653 1310 l 847 1105 l 739 1105 l 597 1251 "},"Ï":{"x_min":-51,"x_max":402,"ha":350,"o":"m 125 0 l 125 1003 l 225 1003 l 225 0 l 125 0 m 306 1151 l 306 1264 l 402 1264 l 402 1151 l 306 1151 m -51 1151 l -51 1264 l 45 1264 l 45 1151 l -51 1151 "},"‹":{"x_min":87,"x_max":330,"ha":431,"o":"m 87 436 l 330 621 l 330 511 l 142 368 l 330 225 l 330 115 l 87 299 l 87 436 "},"±":{"x_min":172,"x_max":986,"ha":1157,"o":"m 986 102 l 986 35 l 172 35 l 172 102 l 986 102 m 612 793 l 612 557 l 986 557 l 986 491 l 612 491 l 612 255 l 546 255 l 546 491 l 172 491 l 172 557 l 546 557 l 546 793 l 612 793 "},"ì":{"x_min":-9,"x_max":237,"ha":313,"o":"m 109 0 l 109 736 l 205 736 l 205 0 l 109 0 m 155 838 l -9 1043 l 117 1043 l 237 838 l 155 838 "},"|":{"x_min":311,"x_max":385,"ha":694,"o":"m 385 1061 l 385 -328 l 311 -328 l 311 1061 l 385 1061 "},"§":{"x_min":57,"x_max":844,"ha":900,"o":"m 631 210 q 721 270 693 236 q 750 355 750 305 q 719 439 750 407 q 612 496 689 471 l 260 618 q 179 548 204 584 q 154 467 154 511 q 181 389 154 418 q 282 334 208 360 l 631 210 m 111 30 l 207 30 q 266 -100 208 -58 q 446 -142 324 -142 q 616 -104 558 -142 q 675 3 675 -67 q 668 53 675 31 q 648 89 662 74 q 473 167 629 112 q 402 191 428 182 l 393 194 q 134 302 170 273 q 76 370 95 333 q 57 454 57 408 q 95 572 57 521 q 205 654 133 623 q 148 722 167 685 q 129 805 129 759 q 212 967 129 906 q 437 1029 296 1029 q 672 964 590 1029 q 753 780 753 900 l 753 775 l 658 775 l 658 777 q 601 901 658 858 q 433 944 543 944 q 282 909 333 944 q 231 807 231 874 q 246 747 231 769 q 314 702 262 725 q 369 682 319 700 q 513 631 418 665 l 555 616 q 752 538 725 558 q 822 462 800 503 q 844 363 844 421 q 808 248 844 295 q 699 169 773 201 q 754 103 736 143 q 773 10 773 64 q 685 -166 773 -102 q 441 -231 597 -231 q 198 -163 284 -231 q 111 30 112 -95 "},"q":{"x_min":57,"x_max":835,"ha":939,"o":"m 155 368 q 234 154 155 234 q 446 74 314 74 q 659 153 580 74 q 739 368 739 233 q 659 582 739 502 q 446 663 580 663 q 234 582 314 663 q 155 368 155 502 m 739 126 q 609 17 680 52 q 445 -18 539 -18 q 164 89 271 -18 q 57 368 57 196 q 164 646 57 540 q 445 753 271 753 q 612 717 541 753 q 739 607 683 682 l 739 736 l 835 736 l 835 -264 l 739 -264 l 739 126 "},"b":{"x_min":104,"x_max":883,"ha":939,"o":"m 201 370 q 279 155 201 235 q 491 76 358 76 q 703 156 624 76 q 783 370 783 236 q 703 586 783 505 q 491 667 624 667 q 279 586 358 667 q 201 370 201 506 m 104 0 l 104 1003 l 201 1003 l 201 612 q 328 722 257 687 q 492 757 398 757 q 774 650 666 757 q 883 370 883 543 q 774 90 883 197 q 492 -16 666 -16 q 325 19 396 -16 q 201 130 254 55 l 201 0 l 104 0 "},"®":{"x_min":82,"x_max":1075,"ha":1157,"o":"m 576 726 l 469 726 l 469 520 l 576 520 q 703 542 666 520 q 740 619 740 565 q 701 701 740 676 q 576 726 662 726 m 592 784 q 771 745 713 784 q 829 625 829 706 q 792 524 829 565 q 693 475 755 484 l 821 212 l 723 212 l 602 463 l 469 463 l 469 212 l 383 212 l 383 784 l 592 784 m 1021 487 q 988 659 1021 578 q 894 801 955 739 q 749 897 830 864 q 577 931 668 931 q 410 898 489 931 q 269 803 331 866 q 170 657 204 738 q 136 489 136 576 q 169 322 136 402 q 266 178 203 242 q 410 82 330 115 q 577 49 490 49 q 747 82 666 49 q 894 180 829 116 q 988 318 956 240 q 1021 487 1021 396 m 577 987 q 771 949 680 987 q 931 841 862 912 q 1038 681 1001 772 q 1075 490 1075 591 q 1038 299 1075 388 q 931 141 1002 210 q 767 31 859 69 q 577 -7 676 -7 q 388 30 478 -7 q 227 140 298 68 q 119 300 156 210 q 82 490 82 391 q 120 679 82 587 q 230 843 158 771 q 387 950 299 913 q 577 987 476 987 "},"L":{"x_min":118,"x_max":848,"ha":888,"o":"m 118 0 l 118 1003 l 218 1003 l 218 94 l 848 94 l 848 0 l 118 0 "}," ":{"x_min":0,"x_max":0,"ha":450},"∑":{"x_min":9.421875,"x_max":868,"ha":893,"o":"m 33 999 l 862 999 l 862 901 l 174 901 l 652 381 l 151 -169 l 868 -169 l 868 -266 l 9 -266 l 9 -175 l 513 380 l 33 904 l 33 999 "},"À":{"x_min":11,"x_max":1046,"ha":1059,"o":"m 299 407 l 759 407 l 530 919 l 299 407 m 11 0 l 473 1003 l 588 1003 l 1046 0 l 944 0 l 804 310 l 255 310 l 114 0 l 11 0 m 539 1105 l 375 1310 l 501 1310 l 621 1105 l 539 1105 "},"+":{"x_min":172,"x_max":986,"ha":1157,"o":"m 612 827 l 612 446 l 986 446 l 986 380 l 612 380 l 612 0 l 546 0 l 546 380 l 172 380 l 172 446 l 546 446 l 546 827 l 612 827 "},"½":{"x_min":90,"x_max":1365,"ha":1423,"o":"m 898 0 l 898 2 q 914 77 898 44 q 962 142 929 111 q 1012 177 978 157 q 1137 242 1046 197 q 1186 267 1155 251 q 1259 309 1244 296 q 1291 347 1282 328 q 1301 394 1301 365 q 1259 479 1301 448 q 1144 510 1217 510 q 1013 472 1059 510 q 968 365 968 435 l 907 365 l 907 367 q 970 510 907 458 q 1143 562 1033 562 q 1305 516 1245 562 q 1365 393 1365 470 q 1331 300 1365 338 q 1179 203 1298 262 q 1008 108 1045 137 q 968 54 971 79 l 1360 54 l 1360 0 l 898 0 m 278 -26 l 1055 1003 l 1146 1003 l 366 -26 l 278 -26 m 277 429 l 277 840 l 90 840 l 90 886 l 152 886 q 255 909 225 886 q 287 990 286 932 l 338 990 l 338 429 l 277 429 "},"Ë":{"x_min":118,"x_max":889,"ha":954,"o":"m 118 0 l 118 1003 l 889 1003 l 889 909 l 218 909 l 218 558 l 837 558 l 837 464 l 218 464 l 218 94 l 889 94 l 889 0 l 118 0 m 633 1151 l 633 1264 l 729 1264 l 729 1151 l 633 1151 m 276 1151 l 276 1264 l 372 1264 l 372 1151 l 276 1151 "},"'":{"x_min":66,"x_max":134,"ha":200,"o":"m 134 973 l 134 598 l 66 598 l 66 973 l 134 973 "},"Š":{"x_min":81,"x_max":917,"ha":999,"o":"m 81 331 l 182 331 l 182 325 q 268 141 182 210 q 499 72 355 72 q 726 127 642 72 q 811 278 811 183 q 762 387 811 350 q 561 451 714 424 l 348 489 q 169 571 228 509 q 111 739 111 634 q 214 950 111 871 q 492 1029 317 1029 q 778 947 674 1029 q 887 720 882 865 l 787 720 q 703 881 777 826 q 495 937 628 937 q 288 885 364 937 q 213 744 213 833 q 265 636 213 673 q 463 573 318 598 l 654 540 q 853 454 790 515 q 917 282 917 392 q 809 55 917 137 q 510 -26 702 -26 q 195 65 310 -26 q 81 316 81 157 l 81 331 m 500 1161 l 642 1310 l 750 1310 l 556 1105 l 443 1105 l 250 1310 l 357 1310 l 500 1161 "},"˛":{"x_min":220,"x_max":424,"ha":694,"o":"m 396 0 q 325 -80 348 -43 q 303 -151 303 -117 q 318 -194 303 -181 q 369 -207 334 -207 l 424 -207 l 424 -294 l 369 -294 q 256 -266 293 -294 q 220 -182 220 -239 q 247 -98 220 -138 q 347 0 274 -57 l 396 0 "},"ð":{"x_min":57,"x_max":843,"ha":900,"o":"m 640 648 q 559 762 595 715 q 494 838 522 810 l 245 739 l 220 791 l 451 885 q 400 938 421 918 q 359 972 379 957 l 416 1031 q 482 973 451 1001 q 543 915 514 944 l 757 1001 l 780 948 l 584 870 q 779 590 716 719 q 843 343 843 461 q 735 77 843 179 q 455 -25 628 -25 q 166 73 276 -25 q 57 328 57 171 q 164 594 57 492 q 444 697 272 697 q 558 684 507 697 q 640 648 608 672 m 155 339 q 235 141 155 215 q 450 68 315 68 q 664 141 584 68 q 745 339 745 215 q 664 536 745 462 q 450 610 584 610 q 235 536 315 610 q 155 339 155 462 "},"ş":{"x_min":40,"x_max":748,"ha":787,"o":"m 40 232 l 138 232 q 212 108 148 150 q 394 67 276 67 q 583 101 518 67 q 648 202 648 136 q 615 275 648 249 q 511 312 583 301 l 296 344 q 115 410 170 362 q 60 545 60 457 q 147 703 60 645 q 387 762 235 762 q 630 698 542 762 q 720 523 717 635 l 624 523 q 550 635 613 598 q 374 673 487 673 q 216 640 272 673 q 160 550 160 607 q 196 478 160 503 q 329 438 232 452 l 519 409 q 694 344 641 391 q 748 212 748 298 q 655 34 748 95 q 383 -26 562 -26 q 138 41 227 -26 q 40 232 48 108 m 243 -271 l 259 -227 q 338 -246 302 -240 q 402 -253 373 -253 q 475 -236 451 -253 q 500 -187 500 -219 q 483 -147 500 -161 q 434 -134 466 -134 q 407 -136 422 -134 q 358 -146 392 -138 l 330 -125 l 401 0 l 455 0 l 406 -86 q 435 -80 420 -82 q 464 -78 451 -78 q 556 -107 523 -78 q 589 -189 589 -136 q 546 -275 589 -244 q 427 -307 504 -307 q 343 -298 390 -307 q 243 -271 296 -289 "},"ı":{"x_min":109,"x_max":205,"ha":313,"o":"m 109 0 l 109 736 l 205 736 l 205 0 l 109 0 "},"Ć":{"x_min":69,"x_max":1078,"ha":1125,"o":"m 959 674 q 835 864 929 797 q 594 931 740 931 q 284 816 397 931 q 171 500 171 701 q 280 188 171 305 q 575 72 390 72 q 834 154 727 72 q 972 377 941 237 l 1078 377 q 909 82 1043 191 q 577 -26 774 -26 q 207 117 346 -26 q 69 501 69 261 q 209 888 69 747 q 595 1029 349 1029 q 913 934 789 1029 q 1061 674 1036 840 l 959 674 m 525 1105 l 644 1310 l 771 1310 l 607 1105 l 525 1105 "},"ä":{"x_min":81,"x_max":855.0625,"ha":900,"o":"m 854 92 l 855 9 q 812 0 832 2 q 774 -4 792 -4 q 702 22 725 -4 q 675 112 680 48 q 540 13 614 44 q 359 -18 465 -18 q 153 39 226 -18 q 81 203 81 97 q 100 291 81 252 q 158 360 119 330 q 241 397 188 382 q 419 430 293 412 q 495 439 447 433 q 675 543 675 461 q 623 635 675 604 q 471 667 571 667 q 279 624 345 667 q 209 496 214 581 l 113 496 q 207 689 121 625 q 458 754 294 754 q 628 733 564 754 q 730 665 693 712 q 763 599 753 636 q 773 486 773 563 l 773 445 l 773 160 q 781 98 773 111 q 813 86 790 86 q 833 87 823 86 q 854 92 844 89 m 675 399 q 595 371 648 384 q 421 341 542 359 q 220 286 262 315 q 178 200 178 258 q 229 104 178 140 q 368 69 281 69 q 589 132 504 69 q 675 298 675 196 l 675 310 l 675 399 m 601 884 l 601 997 l 697 997 l 697 884 l 601 884 m 244 884 l 244 997 l 340 997 l 340 884 l 244 884 "},"¹":{"x_min":94,"x_max":354,"ha":595,"o":"m 290 389 l 290 830 l 94 830 l 94 880 l 159 880 q 268 905 236 880 q 301 991 300 930 l 354 991 l 354 389 l 290 389 "},"£":{"x_min":42,"x_max":864,"ha":900,"o":"m 108 -20 l 56 69 q 171 173 134 118 q 208 297 208 228 q 199 365 208 331 q 175 438 191 400 l 42 438 l 42 512 l 148 512 q 113 618 125 569 q 102 704 102 666 q 205 920 102 836 q 472 1004 308 1004 q 746 917 646 1004 q 846 681 846 830 l 846 670 l 754 670 q 678 849 749 787 q 473 912 606 912 q 276 853 350 912 q 203 699 203 795 q 213 621 203 662 q 252 512 224 579 l 571 512 l 571 438 l 281 438 q 300 368 294 400 q 307 309 307 336 q 278 194 307 245 q 177 82 249 143 q 260 108 224 99 q 329 117 297 117 q 464 92 369 117 q 612 68 559 68 q 717 86 664 68 q 825 142 771 105 l 864 57 q 748 -5 809 15 q 619 -26 687 -26 q 439 2 550 -26 q 285 31 327 31 q 196 18 240 31 q 108 -20 153 5 "},"W":{"x_min":26,"x_max":1522,"ha":1550,"o":"m 357 0 l 26 1003 l 133 1003 l 426 88 l 713 1003 l 834 1003 l 1117 88 l 1417 1003 l 1522 1003 l 1182 0 l 1050 0 l 771 895 l 488 0 l 357 0 "},"Ğ":{"x_min":69,"x_max":1063,"ha":1154,"o":"m 971 182 q 819 27 918 81 q 581 -26 719 -26 q 208 116 348 -26 q 69 501 69 259 q 209 888 69 747 q 596 1029 349 1029 q 907 934 784 1029 q 1046 683 1031 839 l 940 683 q 827 866 916 803 q 590 930 737 930 q 283 815 395 930 q 171 501 171 701 q 282 187 171 304 q 583 71 394 71 q 851 162 741 71 q 961 381 961 253 l 961 432 l 646 432 l 646 519 l 1063 519 l 1063 0 l 982 0 l 971 182 m 348 1301 l 417 1301 q 462 1214 422 1243 q 578 1185 503 1185 q 694 1214 653 1185 q 739 1301 734 1243 l 809 1301 q 740 1152 797 1200 q 578 1104 684 1104 q 416 1152 472 1104 q 348 1301 359 1200 "},"v":{"x_min":-17,"x_max":754,"ha":749,"o":"m 318 0 l -17 736 l 94 736 l 369 98 l 646 736 l 754 736 l 417 0 l 318 0 "},">":{"x_min":179,"x_max":978,"ha":1157,"o":"m 978 441 l 978 386 l 179 60 l 179 133 l 872 413 l 179 696 l 179 770 l 978 441 "},"û":{"x_min":102,"x_max":786,"ha":885,"o":"m 786 736 l 786 0 l 692 0 l 692 135 q 560 22 638 61 q 384 -16 482 -16 q 170 51 239 -16 q 102 259 102 118 l 102 736 l 198 736 l 198 321 q 244 126 198 181 q 401 71 290 71 q 608 139 527 71 q 690 316 690 208 l 690 736 l 786 736 m 460 984 l 317 838 l 210 838 l 403 1043 l 516 1043 l 710 838 l 602 838 l 460 984 "},"Ð":{"x_min":0,"x_max":1063,"ha":1132,"o":"m 225 96 l 488 96 q 694 110 621 96 q 819 160 767 125 q 926 292 892 207 q 960 508 960 376 q 925 718 960 634 q 819 849 890 802 q 692 898 767 883 q 466 913 617 913 l 225 913 l 225 572 l 580 572 l 580 498 l 225 498 l 225 96 m 125 0 l 125 498 l 0 498 l 0 572 l 125 572 l 125 1003 l 488 1003 q 747 982 658 1003 q 901 914 836 961 q 1023 747 983 849 q 1063 501 1063 644 q 1022 255 1063 356 q 900 90 982 153 q 748 20 836 41 q 488 0 659 0 l 125 0 "},"r":{"x_min":104,"x_max":519,"ha":517,"o":"m 201 0 l 104 0 l 104 736 l 201 736 l 201 613 q 291 722 232 683 q 422 762 350 762 q 469 757 445 762 q 519 742 493 752 l 519 647 q 473 658 494 655 q 432 662 452 662 q 289 615 346 662 q 201 475 231 569 l 201 0 "},"Č":{"x_min":69,"x_max":1078,"ha":1125,"o":"m 959 674 q 835 864 929 797 q 594 931 740 931 q 284 816 397 931 q 171 500 171 701 q 280 188 171 305 q 575 72 390 72 q 834 154 727 72 q 972 377 941 237 l 1078 377 q 909 82 1043 191 q 577 -26 774 -26 q 207 117 346 -26 q 69 501 69 261 q 209 888 69 747 q 595 1029 349 1029 q 913 934 789 1029 q 1061 674 1036 840 l 959 674 m 605 1161 l 747 1310 l 855 1310 l 661 1105 l 548 1105 l 355 1310 l 462 1310 l 605 1161 "},"x":{"x_min":3,"x_max":784,"ha":786,"o":"m 121 0 l 3 0 l 336 392 l 43 736 l 167 736 l 399 459 l 625 736 l 750 736 l 458 388 l 784 0 l 670 0 l 396 319 l 121 0 "},"è":{"x_min":57,"x_max":842,"ha":895,"o":"m 164 428 l 732 428 q 646 603 723 537 q 450 670 569 670 q 251 603 329 670 q 164 428 173 537 m 814 234 q 686 44 784 114 q 450 -26 588 -26 q 165 82 273 -26 q 57 368 57 190 q 165 653 57 544 q 450 762 274 762 q 734 654 627 762 q 842 369 842 547 l 842 347 l 161 347 q 244 140 169 213 q 450 68 320 68 q 611 111 544 68 q 705 234 678 155 l 814 234 m 460 838 l 296 1043 l 422 1043 l 542 838 l 460 838 "},"Ø":{"x_min":64.9375,"x_max":1128.0625,"ha":1193,"o":"m 269 204 l 893 828 q 765 905 839 879 q 596 931 690 931 q 283 816 396 931 q 171 501 171 702 q 194 334 171 404 q 269 204 217 264 m 64 0 l 197 135 q 101 291 133 199 q 69 501 69 383 q 209 888 69 747 q 596 1029 349 1029 q 806 996 714 1029 q 965 900 899 964 l 1086 1022 l 1128 984 l 1007 860 q 1094 698 1064 789 q 1124 500 1124 607 q 982 113 1124 253 q 590 -26 841 -26 q 399 2 484 -26 q 234 93 314 30 l 105 -36 l 64 0 m 930 785 l 306 164 q 436 94 363 117 q 596 71 509 71 q 906 184 792 71 q 1021 492 1021 297 q 998 658 1021 584 q 930 785 976 731 "},"÷":{"x_min":172,"x_max":986,"ha":1157,"o":"m 578 246 q 630 225 609 246 q 651 173 651 204 q 630 122 651 143 q 578 102 609 102 q 527 122 548 102 q 507 173 507 143 q 527 224 507 203 q 578 246 548 246 m 986 446 l 986 380 l 172 380 l 172 446 l 986 446 m 578 724 q 629 702 608 724 q 651 651 651 681 q 630 600 651 621 q 578 580 609 580 q 527 600 548 580 q 507 651 507 620 q 528 702 507 681 q 578 724 549 724 "},"h":{"x_min":102,"x_max":786,"ha":885,"o":"m 102 0 l 102 1003 l 195 1003 l 195 600 q 326 712 248 674 q 502 751 404 751 q 717 684 648 751 q 786 476 786 617 l 786 0 l 690 0 l 690 413 q 643 609 690 554 q 486 664 597 664 q 279 595 360 664 q 198 419 198 527 l 198 0 l 102 0 "},".":{"x_min":170,"x_max":283,"ha":450,"o":"m 170 0 l 170 122 l 283 122 l 283 0 l 170 0 "},"f":{"x_min":19,"x_max":408,"ha":415,"o":"m 144 0 l 144 656 l 19 656 l 19 736 l 144 736 l 144 794 q 177 962 144 920 q 299 1004 211 1004 q 349 999 322 1004 q 408 987 376 995 l 408 902 q 359 912 378 909 q 325 915 341 915 q 258 896 276 915 q 241 808 241 877 l 241 736 l 408 736 l 408 656 l 241 656 l 241 0 l 144 0 "},"“":{"x_min":144,"x_max":483,"ha":627,"o":"m 483 811 l 483 690 l 370 690 l 370 850 q 395 968 370 929 q 483 1029 421 1008 l 483 963 q 442 927 454 949 q 431 870 431 905 l 431 811 l 483 811 m 257 811 l 257 690 l 144 690 l 144 850 q 169 968 144 929 q 257 1029 195 1008 l 257 963 q 217 927 229 949 q 205 870 205 905 l 205 811 l 257 811 "},"A":{"x_min":11,"x_max":1046,"ha":1059,"o":"m 299 407 l 759 407 l 530 919 l 299 407 m 11 0 l 473 1003 l 588 1003 l 1046 0 l 944 0 l 804 310 l 255 310 l 114 0 l 11 0 "},"O":{"x_min":69,"x_max":1124,"ha":1193,"o":"m 1124 501 q 982 114 1124 255 q 596 -26 841 -26 q 209 114 349 -26 q 69 501 69 255 q 209 888 69 747 q 596 1029 349 1029 q 982 888 841 1029 q 1124 501 1124 747 m 596 71 q 908 185 795 71 q 1021 501 1021 299 q 908 816 1021 702 q 596 931 795 931 q 283 816 396 931 q 171 501 171 702 q 283 185 171 299 q 596 71 396 71 "},"π":{"x_min":-3,"x_max":778,"ha":794,"o":"m 759 640 l 636 640 l 558 273 q 543 193 548 226 q 538 145 538 161 q 554 90 538 106 q 612 74 571 74 q 647 75 632 74 q 674 80 662 77 l 657 0 q 620 -8 638 -5 q 588 -11 603 -11 q 482 24 520 -11 q 444 126 444 60 q 451 206 444 157 q 482 364 458 254 l 540 640 l 292 640 l 157 0 l 63 0 l 198 640 l 172 640 q 114 618 134 640 q 86 551 93 597 l -3 551 q 56 685 13 648 q 202 722 99 722 l 778 722 l 759 640 "},"‘":{"x_min":144,"x_max":257,"ha":401,"o":"m 257 811 l 257 690 l 144 690 l 144 850 q 169 968 144 929 q 257 1029 195 1008 l 257 963 q 217 927 229 949 q 205 870 205 905 l 205 811 l 257 811 "},"3":{"x_min":69,"x_max":829,"ha":900,"o":"m 69 311 l 171 310 q 244 131 173 192 q 453 70 316 70 q 656 124 585 70 q 727 279 727 178 q 656 424 727 380 q 418 468 585 468 l 382 468 l 382 557 l 406 557 q 619 599 552 557 q 687 733 687 641 q 626 870 687 824 q 446 916 566 916 q 268 851 333 916 q 202 674 204 786 l 100 673 q 200 918 110 834 q 453 1003 290 1003 q 700 934 612 1003 q 788 743 788 866 q 744 596 788 655 q 618 518 700 538 q 773 444 718 506 q 829 279 829 381 q 730 54 829 134 q 455 -26 632 -26 q 170 60 269 -26 q 69 311 71 147 "},"9":{"x_min":56,"x_max":831,"ha":900,"o":"m 187 228 q 263 107 201 148 q 431 66 325 66 q 654 163 581 66 q 728 460 728 261 l 728 488 q 600 370 681 410 q 409 330 520 330 q 151 420 247 330 q 56 662 56 510 q 160 911 56 819 q 443 1003 264 1003 q 736 879 641 1003 q 831 495 831 755 q 731 103 831 232 q 427 -26 631 -26 q 188 44 282 -26 q 87 228 95 114 l 187 228 m 156 661 q 225 484 156 547 q 421 422 295 422 q 634 487 558 422 q 710 670 710 552 q 635 842 710 777 q 437 907 561 907 q 231 841 307 907 q 156 661 156 775 "},"l":{"x_min":109,"x_max":205,"ha":313,"o":"m 109 0 l 109 1003 l 205 1003 l 205 0 l 109 0 "},"":{"x_min":19,"x_max":615,"ha":724,"o":"m 144 0 l 144 656 l 19 656 l 19 736 l 144 736 l 144 794 q 177 962 144 920 q 299 1004 211 1004 q 349 999 322 1004 q 408 987 376 995 l 408 902 q 359 912 378 909 q 325 915 341 915 q 258 896 276 915 q 241 808 241 877 l 241 736 l 408 736 l 408 656 l 241 656 l 241 0 l 144 0 m 519 0 l 519 736 l 615 736 l 615 0 l 519 0 m 519 889 l 519 1004 l 615 1004 l 615 889 l 519 889 "},"4":{"x_min":56,"x_max":839,"ha":900,"o":"m 571 345 l 571 864 l 152 345 l 571 345 m 571 0 l 571 255 l 56 255 l 56 353 l 575 999 l 668 999 l 668 345 l 839 345 l 839 255 l 668 255 l 668 0 l 571 0 "},"Ü":{"x_min":119,"x_max":992,"ha":1112,"o":"m 119 1003 l 221 1003 l 221 387 q 301 147 221 223 q 554 71 382 71 q 809 147 728 71 q 891 387 891 224 l 891 1003 l 992 1003 l 992 361 q 879 74 992 174 q 554 -26 766 -26 q 230 73 341 -26 q 119 365 119 173 l 119 1003 m 688 1151 l 688 1264 l 784 1264 l 784 1151 l 688 1151 m 331 1151 l 331 1264 l 427 1264 l 427 1151 l 331 1151 "},"à":{"x_min":81,"x_max":855.0625,"ha":900,"o":"m 854 92 l 855 9 q 812 0 832 2 q 774 -4 792 -4 q 702 22 725 -4 q 675 112 680 48 q 540 13 614 44 q 359 -18 465 -18 q 153 39 226 -18 q 81 203 81 97 q 100 291 81 252 q 158 360 119 330 q 241 397 188 382 q 419 430 293 412 q 495 439 447 433 q 675 543 675 461 q 623 635 675 604 q 471 667 571 667 q 279 624 345 667 q 209 496 214 581 l 113 496 q 207 689 121 625 q 458 754 294 754 q 628 733 564 754 q 730 665 693 712 q 763 599 753 636 q 773 486 773 563 l 773 445 l 773 160 q 781 98 773 111 q 813 86 790 86 q 833 87 823 86 q 854 92 844 89 m 675 399 q 595 371 648 384 q 421 341 542 359 q 220 286 262 315 q 178 200 178 258 q 229 104 178 140 q 368 69 281 69 q 589 132 504 69 q 675 298 675 196 l 675 310 l 675 399 m 469 838 l 305 1043 l 431 1043 l 551 838 l 469 838 "},"ó":{"x_min":57,"x_max":844,"ha":900,"o":"m 155 368 q 234 149 155 230 q 449 68 314 68 q 664 149 584 68 q 744 368 744 231 q 664 586 744 505 q 449 668 584 668 q 234 586 314 668 q 155 368 155 505 m 57 368 q 165 653 57 544 q 450 762 273 762 q 734 652 625 762 q 844 368 844 543 q 734 83 844 192 q 450 -26 625 -26 q 165 83 273 -26 q 57 368 57 192 m 370 838 l 489 1043 l 616 1043 l 452 838 l 370 838 "}}}
